<?xml version="1.0" encoding="UTF-8" standalone="no"?>
<!-- Created with Inkscape (http://www.inkscape.org/) -->

<svg
   width="210mm"
   height="297mm"
   viewBox="0 0 210 297"
   version="1.1"
   id="svg27028"
   inkscape:version="1.1 (c4e8f9e, 2021-05-24)"
   sodipodi:docname="contact-icons-ink.svg"
   xmlns:inkscape="http://www.inkscape.org/namespaces/inkscape"
   xmlns:sodipodi="http://sodipodi.sourceforge.net/DTD/sodipodi-0.dtd"
   xmlns="http://www.w3.org/2000/svg"
   xmlns:svg="http://www.w3.org/2000/svg">
  <sodipodi:namedview
     id="namedview27030"
     pagecolor="#505050"
     bordercolor="#ffffff"
     borderopacity="1"
     inkscape:pageshadow="0"
     inkscape:pageopacity="0"
     inkscape:pagecheckerboard="1"
     inkscape:document-units="mm"
     showgrid="true"
     showguides="true"
     inkscape:guide-bbox="true"
     inkscape:snap-global="false"
     inkscape:zoom="0.31559402"
     inkscape:cx="505.39614"
     inkscape:cy="594.11772"
     inkscape:window-width="1366"
     inkscape:window-height="740"
     inkscape:window-x="0"
     inkscape:window-y="0"
     inkscape:window-maximized="1"
     inkscape:current-layer="layer1" />
  <defs
     id="defs27025" />
  <g
     inkscape:label="Layer 1"
     inkscape:groupmode="layer"
     id="layer1">
    <g
       id="g1793"
       transform="translate(-57.00163,-0.45794419)">
      <circle
         style="fill:#000000;fill-opacity:1;stroke:none;stroke-width:5.21222;stroke-miterlimit:4;stroke-dasharray:none;stroke-opacity:1"
         id="path34831"
         cx="106.122"
         cy="49.63031"
         r="47.496304" />
      <path
         id="path33653"
         style="color:#000000;fill:#e2ded5;fill-opacity:1;stroke-width:5.29167;-inkscape-stroke:none"
         d="m 106.12072,14.622375 c -12.389303,0 -22.488036,10.099246 -22.488036,22.488551 0,3.538297 1.385994,7.648705 3.300574,12.282969 1.914591,4.634267 4.427884,9.66969 6.933944,14.351579 5.012117,9.363777 10.013338,17.326077 10.013338,17.326077 l 2.24018,3.56671 2.24224,-3.56671 c 0,0 5.00173,-7.9623 10.01386,-17.326077 2.50607,-4.681889 5.01884,-9.717312 6.93342,-14.351579 1.91458,-4.634264 3.30109,-8.744672 3.30109,-12.282969 0,-12.389305 -10.1013,-22.488551 -22.49061,-22.488551 z" />
      <path
         id="path33274"
         style="fill:#000000;stroke-width:4.39927"
         d="m 125.96565,37.111212 c 0,10.959401 -19.84375,42.552309 -19.84375,42.552309 0,0 -19.843743,-31.592908 -19.843743,-42.552309 0,-10.959401 8.88435,-19.84375 19.843743,-19.84375 10.9594,0 19.84375,8.884349 19.84375,19.84375 z"
         sodipodi:nodetypes="scsss" />
      <circle
         style="fill:#e2ded5;fill-opacity:1;stroke:none;stroke-width:2.22782;stroke-miterlimit:4;stroke-dasharray:none;stroke-opacity:1"
         id="path33531"
         cx="106.12192"
         cy="36.359955"
         r="7.3249459" />
    </g>
    <g
       id="g38830"
       transform="translate(-58.086046,22.590139)">
      <circle
         style="fill:#000000;fill-opacity:1;stroke:none;stroke-width:5.21222;stroke-miterlimit:4;stroke-dasharray:none;stroke-opacity:1"
         id="circle37386"
         cx="106.28063"
         cy="156.91696"
         r="47.496304" />
      <path
         id="path36994"
         style="color:#000000;fill:#e2ded5;fill-opacity:1;stroke-width:5.30731;-inkscape-stroke:none"
         d="m 84.540295,134.36108 c -4.081381,0 -7.449692,3.36831 -7.449692,7.44969 v 30.2121 c 0,4.08138 3.368311,7.44996 7.449692,7.44996 h 43.480675 c 4.08138,0 7.44969,-3.36858 7.44969,-7.44996 v -30.2121 c 0,-4.08138 -3.36831,-7.44969 -7.44969,-7.44969 z" />
      <path
         id="rect35126"
         style="fill:#000000;fill-opacity:1;stroke:none;stroke-width:2.30379;stroke-miterlimit:4;stroke-dasharray:none;stroke-opacity:1"
         d="m 84.540035,137.01448 c -0.912106,0 -1.763086,0.25209 -2.487548,0.69063 l 24.228143,17.26462 24.22763,-17.26462 c -0.72447,-0.43854 -1.57544,-0.69063 -2.48755,-0.69063 z m 47.829925,2.76795 -24.29811,17.31489 -1.79122,1.27682 -26.090114,-18.59145 c -0.2862,0.6155 -0.446769,1.30224 -0.446769,2.02808 v 30.21237 c 0,2.65715 2.139134,4.79628 4.796288,4.79628 h 43.480675 c 2.65715,0 4.79628,-2.13913 4.79628,-4.79628 v -30.21237 c 0,-0.72597 -0.16073,-1.41277 -0.44703,-2.02834 z" />
    </g>
    <g
       id="g38825"
       transform="translate(157.98387,-55.123156)">
      <circle
         style="opacity:1;fill:#000000;fill-opacity:1;stroke:none;stroke-width:5.21222;stroke-miterlimit:4;stroke-dasharray:none;stroke-opacity:1"
         id="circle38432"
         cx="2.7522969"
         cy="156.51694"
         r="47.496304" />
      <rect
         style="fill:#e2ded5;fill-opacity:1;stroke:none;stroke-width:4.38198;stroke-miterlimit:4;stroke-dasharray:none;stroke-opacity:1"
         id="rect37566"
         width="35.822971"
         height="63.685284"
         x="-15.159191"
         y="124.6743"
         ry="3.9939227" />
      <rect
         style="fill:#000000;fill-opacity:1;stroke:none;stroke-width:3.46903;stroke-miterlimit:4;stroke-dasharray:none;stroke-opacity:1"
         id="rect37706"
         width="29.859776"
         height="47.884304"
         x="-12.17759"
         y="132.5748"
         ry="0.44861373" />
      <rect
         style="fill:#000000;fill-opacity:1;stroke:none;stroke-width:2.33943;stroke-miterlimit:4;stroke-dasharray:none;stroke-opacity:1"
         id="rect37847"
         width="8.501811"
         height="1.2509457"
         x="-1.4986091"
         y="127.92606"
         ry="0.32959053" />
      <circle
         style="fill:#000000;fill-opacity:1;stroke:none;stroke-width:3.02948;stroke-miterlimit:4;stroke-dasharray:none;stroke-opacity:1"
         id="path37951"
         cx="2.752295"
         cy="184.3634"
         r="2.62992" />
    </g>
    <g
       id="g1797"
       transform="translate(232.2174,115.05385)">
      <circle
         style="fill:#000000;fill-opacity:1;stroke:none;stroke-width:5.21222;stroke-miterlimit:4;stroke-dasharray:none;stroke-opacity:1"
         id="path34831-3"
         cx="-70.839279"
         cy="132.55577"
         r="47.496304" />
      <path
         style="fill:#e2ded5;fill-opacity:1;stroke-width:0.201156"
         d="m -78.934547,147.91594 -0.05155,-15.33815 -4.073408,-0.0545 -4.073409,-0.0545 v -5.72878 -5.72878 h 4.123697 4.123697 v -3.68921 c 0,-4.27173 0.295706,-5.84417 1.546727,-8.22486 1.419112,-2.70058 4.137595,-5.00245 7.060202,-5.9782 2.821812,-0.94211 3.74109,-1.05017 9.849128,-1.15783 l 5.883818,-0.10372 v 5.75495 5.75495 l -4.274568,0.009 c -4.624232,0.01 -5.916129,0.15527 -6.324488,0.71374 -0.191566,0.26197 -0.263366,1.2546 -0.263366,3.64079 v 3.28063 h 5.426178 5.426185 l -0.09466,0.55318 c -0.05208,0.30424 -0.324538,2.63514 -0.605497,5.17977 -0.28096,2.54462 -0.559791,4.87405 -0.619624,5.1765 l -0.108788,0.54992 -5.365652,0.0535 -5.365653,0.0535 -0.05155,15.33814 -0.05154,15.33815 h -6.032168 -6.032166 z"
         id="path1555" />
    </g>
  </g>
</svg>
