<?xml version="1.0" encoding="UTF-8" standalone="no"?>
<!-- Created with Inkscape (http://www.inkscape.org/) -->

<svg
   width="210mm"
   height="297mm"
   viewBox="0 0 210 297"
   version="1.1"
   id="svg901"
   inkscape:version="1.1 (c4e8f9e, 2021-05-24)"
   sodipodi:docname="mechanic-icons-ink.svg"
   xmlns:inkscape="http://www.inkscape.org/namespaces/inkscape"
   xmlns:sodipodi="http://sodipodi.sourceforge.net/DTD/sodipodi-0.dtd"
   xmlns="http://www.w3.org/2000/svg"
   xmlns:svg="http://www.w3.org/2000/svg">
  <sodipodi:namedview
     id="namedview903"
     pagecolor="#505050"
     bordercolor="#ffffff"
     borderopacity="1"
     inkscape:pageshadow="0"
     inkscape:pageopacity="0"
     inkscape:pagecheckerboard="1"
     inkscape:document-units="mm"
     showgrid="false"
     inkscape:snap-global="false"
     inkscape:zoom="0.45014485"
     inkscape:cx="578.70261"
     inkscape:cy="529.82945"
     inkscape:window-width="1366"
     inkscape:window-height="740"
     inkscape:window-x="0"
     inkscape:window-y="0"
     inkscape:window-maximized="1"
     inkscape:current-layer="layer2"
     showguides="true"
     inkscape:guide-bbox="true"
     inkscape:snap-bbox="true"
     inkscape:object-paths="false"
     inkscape:snap-nodes="true"
     inkscape:snap-intersection-paths="true"
     inkscape:bbox-nodes="true" />
  <defs
     id="defs898" />
  <g
     inkscape:groupmode="layer"
     id="layer2"
     inkscape:label="Layer 2"
     style="display:inline;opacity:1">
    <g
       id="g16169"
       transform="translate(54.072715,-44.814194)"
       style="opacity:1">
      <circle
         style="fill:#000000;fill-opacity:1;stroke:none;stroke-width:5.21222;stroke-miterlimit:4;stroke-dasharray:none;stroke-opacity:1"
         id="circle16099"
         cx="147.67841"
         cy="-121.8827"
         r="47.496304"
         transform="rotate(95.986199)" />
      <path
         id="path13067"
         style="fill:#e2ded5;fill-opacity:1;stroke:none;stroke-width:0.257286px;stroke-linecap:butt;stroke-linejoin:miter;stroke-opacity:1"
         d="m 102.28445,139.04227 c 0.18578,18.95417 -1.65286,29.05991 -4.051256,36.71804 h 7.998486 v 0.003 h 7.16884 c -2.39839,-7.65814 -4.23655,-17.76387 -4.05077,-36.71805 h -1.49747 v -0.003 z" />
      <path
         id="path14911"
         style="display:inline;fill:#e2ded5;fill-opacity:1;stroke:none;stroke-width:0.257286px;stroke-linecap:butt;stroke-linejoin:miter;stroke-opacity:1"
         d="m 104.50805,175.20453 -11.151216,0.001 0.02007,9.12059 H 97.9779 a 7.867358,7.867358 0 0 1 7.83868,-7.21456 7.867358,7.867358 0 0 1 7.83918,7.21456 h 4.60151 l 0.0206,-9.12159 h -11.15076 z m -11.129116,10.07989 0.01698,7.87235 c 4.005379,-0.27013 7.114086,2.96903 11.111026,3.59798 0.15414,0.0242 0.30949,0.0447 0.46634,0.0608 0.0297,0.003 0.059,0.005 0.0884,0.008 0.13011,0.0121 0.26135,0.0217 0.39347,0.0276 0.03,0.001 0.06,0.002 0.09,0.003 0.13337,0.005 0.26796,0.006 0.40352,0.004 0.0175,-2.6e-4 0.0351,-0.001 0.0527,-0.002 0.14333,-0.003 0.28777,-0.01 0.43368,-0.0211 0,-8e-5 0.003,9e-5 0.004,0 0.003,-1.7e-4 0.004,-2.5e-4 0.007,-5.1e-4 0.14722,-0.0113 0.29573,-0.0264 0.44572,-0.0462 0.0111,-0.001 0.0221,-0.004 0.0332,-0.005 0.0671,-0.009 0.13435,-0.0182 0.20199,-0.0291 v -0.003 c 3.99638,-0.62951 7.1056,-3.86558 11.11054,-3.59547 l 0.0175,-7.87135 h -4.58443 a 7.867358,7.867358 0 0 1 -7.85425,7.5618 7.867358,7.867358 0 0 1 -7.85376,-7.5618 z" />
      <path
         id="rect12454"
         style="fill:#e2ded5;fill-opacity:1;stroke-width:10.2914"
         d="m 106.06034,122.30962 c -4.11437,0.005 -8.043103,0.69096 -11.864316,1.77035 -0.9084,0.25659 -1.704341,0.75557 -1.738688,1.6804 H 119.1764 c -0.0348,-0.92359 -0.83786,-1.39708 -1.7382,-1.6804 -3.97281,-1.2501 -7.74756,-1.77507 -11.37786,-1.77035 z m -13.606529,4.40854 v 1.01407 h 26.726079 v -1.01407 z m 0,1.97186 v 11.86681 c 0,0.96498 0.818787,2.02231 1.742213,1.74222 7.533876,-2.28525 15.232676,-2.80473 23.242176,0 0.91074,0.31892 1.74169,-0.77724 1.74169,-1.74222 v -11.86681 z m 13.363289,2.72462 a 2.4559192,2.4559192 0 0 1 2.45579,2.45577 2.4559192,2.4559192 0 0 1 -2.45579,2.45628 2.4559192,2.4559192 0 0 1 -2.45626,-2.45628 2.4559192,2.4559192 0 0 1 2.45626,-2.45577 z" />
    </g>
    <g
       id="g39813">
      <circle
         style="fill:#000000;fill-opacity:1;stroke:none;stroke-width:5.21222;stroke-miterlimit:4;stroke-dasharray:none;stroke-opacity:1"
         id="path34831"
         cx="44.740795"
         cy="-54.275269"
         r="47.496304"
         transform="rotate(95.986199)" />
      <path
         id="path1008"
         style="fill:#e2ded5;fill-opacity:1;stroke:none;stroke-width:0.131189px;stroke-linecap:butt;stroke-linejoin:miter;stroke-opacity:1"
         d="m 35.768859,23.06033 c -3.285512,-3.266824 -9.714772,-4.082483 -12.307235,0.28083 l 6.762203,2.733471 0.867494,4.266078 -5.26819,13.002063 c 0,0 8.980816,-1.198442 13.291047,2.388684 4.310225,3.58713 30.750132,31.480556 33.135402,33.250626 4.57713,3.396626 9.75978,-2.683493 6.2105,-6.390239 C 73.89947,67.828898 55.62314,52.313267 44.503939,41.160633 40.943175,36.524554 38.420807,29.873127 37.636106,26.321217 37.362351,25.082074 36.688802,23.97504 35.768859,23.06033 Z M 77.14326,73.261486 a 2.9215863,2.9215863 0 0 1 -1.9e-4,4.131824 2.9215863,2.9215863 0 0 1 -4.13163,0 2.9215863,2.9215863 0 0 1 -1.8e-4,-4.131824 2.9215863,2.9215863 0 0 1 4.132,0 z M 38.488924,36.359167 c 0.07228,0.06785 0.100699,0.174648 0.06396,0.273763 l -0.26235,0.708053 c -0.04897,0.132138 -0.194869,0.199194 -0.327029,0.150199 L 33.04137,35.666875 c -0.132134,-0.04897 -0.198937,-0.194764 -0.150017,-0.32685 l 0.262531,-0.708235 c 0.04897,-0.132137 0.194687,-0.199009 0.326849,-0.150017 l 4.921953,1.824126 c 0.03304,0.01224 0.06215,0.03065 0.08624,0.05327 z m -0.597171,1.614318 c 0.07229,0.06785 0.100699,0.174644 0.06396,0.273764 l -0.26253,0.708234 c -0.04897,0.132144 -0.194688,0.199011 -0.326851,0.150019 l -4.922133,-1.824308 c -0.132137,-0.04897 -0.198936,-0.194762 -0.150018,-0.32685 l 0.26235,-0.708053 c 0.04897,-0.132143 0.194878,-0.199182 0.327032,-0.150199 l 4.922132,1.824308 c 0.03304,0.01224 0.06197,0.03047 0.08606,0.05308 z m -0.580684,1.63117 c 0.07227,0.06787 0.100647,0.1747 0.06396,0.273763 l -0.26235,0.708054 c -0.04897,0.132135 -0.19469,0.199013 -0.326849,0.150017 l -4.922134,-1.823945 c -0.132138,-0.04897 -0.199119,-0.194945 -0.150198,-0.327031 l 0.262531,-0.708235 c 0.04897,-0.132137 0.194724,-0.198972 0.326849,-0.150017 l 4.922135,1.824307 c 0.03304,0.01224 0.06197,0.03046 0.08606,0.05309 z" />
      <path
         style="fill:#e2ded5;fill-opacity:1;stroke:none;stroke-width:0.120936px;stroke-linecap:butt;stroke-linejoin:miter;stroke-opacity:1"
         d="m 18.991599,33.564089 6.272973,2.554014 2.905182,-2.152293 -3.493886,8.915494 c -4.558461,-3.362961 -5.741205,-6.394733 -5.684269,-9.317215 z"
         sodipodi:nodetypes="ccccc"
         id="path8938" />
    </g>
    <path
       id="path17536"
       style="color:#000000;opacity:1;fill:none;fill-opacity:1;stroke:none;stroke-width:11.8866;stroke-opacity:1;-inkscape-stroke:none"
       d="m 449.35769,239.13173 c -26.00005,0 -47.29323,21.29012 -47.29323,47.29065 0,26.00057 21.29271,47.29324 47.29323,47.29324 26.00055,0 47.29274,-21.29277 47.29274,-47.29324 0,-26.00044 -21.29261,-47.29065 -47.29274,-47.29065 z m 0,5.94331 c 22.76634,0 41.34943,18.58103 41.34943,41.34734 0,22.76633 -18.58309,41.34994 -41.34943,41.34994 -22.76631,0 -41.34993,-18.58361 -41.34993,-41.34994 0,-22.76631 18.58362,-41.34734 41.34993,-41.34734 z" />
    <g
       id="g22365"
       transform="translate(-244.06781,124.72874)"
       style="opacity:1">
      <circle
         style="fill:#000000;fill-opacity:1;stroke:none;stroke-width:5.21222;stroke-miterlimit:4;stroke-dasharray:none;stroke-opacity:1"
         id="circle22341"
         cx="24.865414"
         cy="-299.49399"
         r="47.496304"
         transform="rotate(95.986199)" />
      <path
         id="path20397"
         style="color:#000000;fill:#e2ded5;fill-opacity:1;stroke-width:0.171277;-inkscape-stroke:none"
         d="M 321.36634,56.025579 308.7737,68.618216 c 0.0309,0.432412 0.0521,0.867355 0.0521,1.307186 0,1.938804 -0.30779,3.809596 -0.8726,5.568921 l 18.80588,-18.80587 c -0.51247,0.08493 -1.03752,0.13118 -1.57312,0.131182 -1.35516,1.2e-5 -2.64661,-0.284347 -3.81964,-0.794056 z" />
      <path
         style="color:#000000;fill:#e2ded5;fill-opacity:1;stroke-width:0.171277;-inkscape-stroke:none"
         d="m 266.5893,45.043186 5.77435,21.549821 c 0.44639,-2.40419 1.36469,-4.647905 2.65578,-6.632307 l -3.0893,-11.529433 c -2.06266,-0.659857 -3.88973,-1.844415 -5.34083,-3.388081 z"
         id="path20395" />
      <path
         style="color:#000000;fill:#e2ded5;fill-opacity:1;stroke-width:0.171277;-inkscape-stroke:none"
         d="m 285.52493,28.544342 c 1.1952,1.475924 2.0627,3.225357 2.49425,5.137181 l 29.16662,8.104765 c 0.9752,-1.442256 2.33011,-2.608331 3.9171,-3.355597 z"
         id="path21571" />
      <path
         id="path17322"
         style="color:#000000;fill:#e2ded5;fill-opacity:1;stroke-width:4.10539;-inkscape-stroke:none"
         d="m 290.4392,53.59221 c -8.97988,0 -16.3341,7.353168 -16.3341,16.333214 0,8.980059 7.35406,16.334108 16.3341,16.334108 8.98005,0 16.33394,-7.354083 16.33394,-16.334108 0,-8.980015 -7.35403,-16.333214 -16.33394,-16.333214 z m 0,2.052697 c 7.86303,0 14.28124,6.417503 14.28124,14.280517 0,7.86302 -6.41821,14.281415 -14.28124,14.281415 -7.86301,0 -14.28141,-6.418395 -14.28141,-14.281415 0,-7.863014 6.4184,-14.280517 14.28141,-14.280517 z" />
      <path
         id="circle17109"
         style="fill:#e2ded5;fill-opacity:1;stroke:none;stroke-width:4.10539;stroke-miterlimit:4;stroke-dasharray:none;stroke-opacity:1"
         d="m 290.43903,57.697244 a 12.228597,12.228597 0 0 0 -12.22872,12.228539 12.228597,12.228597 0 0 0 12.22872,12.228539 12.228597,12.228597 0 0 0 12.22853,-12.228539 12.228597,12.228597 0 0 0 -12.22853,-12.228539 z m 0,8.02302 a 4.2055948,4.2055948 0 0 1 4.20552,4.205519 4.2055948,4.2055948 0 0 1 -4.20552,4.205694 4.2055948,4.2055948 0 0 1 -4.2057,-4.205694 4.2055948,4.2055948 0 0 1 4.2057,-4.205519 z" />
      <path
         id="path17532"
         style="fill:#e2ded5;fill-opacity:1;stroke:none;stroke-width:3.61764;stroke-miterlimit:4;stroke-dasharray:none;stroke-opacity:1"
         d="m 275.74474,25.667917 a 10.775809,10.775809 0 0 0 -10.77591,10.775756 10.775809,10.775809 0 0 0 10.77591,10.77576 10.775809,10.775809 0 0 0 10.77575,-10.77576 10.775809,10.775809 0 0 0 -10.77575,-10.775756 z m 0,7.069867 a 3.7059593,3.7059593 0 0 1 3.70589,3.705889 3.7059593,3.7059593 0 0 1 -3.70589,3.706048 3.7059593,3.7059593 0 0 1 -3.70605,-3.706048 3.7059593,3.7059593 0 0 1 3.70605,-3.705889 z" />
      <path
         id="path17534"
         style="fill:#e2ded5;fill-opacity:1;stroke:none;stroke-width:2.63292;stroke-miterlimit:4;stroke-dasharray:none;stroke-opacity:1"
         d="m 325.18626,39.325943 a 7.8426126,7.8426126 0 0 0 -7.84269,7.842577 7.8426126,7.8426126 0 0 0 7.84269,7.842574 7.8426126,7.8426126 0 0 0 7.84257,-7.842574 7.8426126,7.8426126 0 0 0 -7.84257,-7.842577 z m 0,5.145434 a 2.6971901,2.6971901 0 0 1 2.69714,2.697143 2.6971901,2.6971901 0 0 1 -2.69714,2.697254 2.6971901,2.6971901 0 0 1 -2.69726,-2.697254 2.6971901,2.6971901 0 0 1 2.69726,-2.697143 z" />
      <path
         id="path39835"
         style="color:#000000;fill:#e2ded5;fill-opacity:1;stroke-width:4.10539;-inkscape-stroke:none"
         d="m 290.4392,53.59221 c -8.97988,0 -16.3341,7.353168 -16.3341,16.333214 0,8.980059 7.35406,16.334108 16.3341,16.334108 8.98005,0 16.33394,-7.354083 16.33394,-16.334108 0,-8.980015 -7.35403,-16.333214 -16.33394,-16.333214 z m 0,2.052697 c 7.86303,0 14.28124,6.417503 14.28124,14.280517 0,7.86302 -6.41821,14.281415 -14.28124,14.281415 -7.86301,0 -14.28141,-6.418395 -14.28141,-14.281415 0,-7.863014 6.4184,-14.280517 14.28141,-14.280517 z" />
    </g>
    <g
       id="g856"
       transform="translate(-207.33264,151.59161)">
      <circle
         style="fill:#000000;fill-opacity:1;stroke:none;stroke-width:5.21222;stroke-miterlimit:4;stroke-dasharray:none;stroke-opacity:1"
         id="circle39808"
         cx="43.330433"
         cy="-369.63776"
         r="47.496304"
         transform="rotate(95.986199)" />
      <path
         id="rect36355"
         style="fill:#e2ded5;fill-opacity:1;stroke:none;stroke-width:4.20519;stroke-miterlimit:4;stroke-dasharray:none;stroke-opacity:1"
         d="m 386.6105,54.212152 c -3.33129,-0.08785 -28.23866,16.579168 -30.98906,17.187631 -1.59114,0.352009 -3.64949,-2.884522 -3.64949,-2.884522 -10e-6,0 -1.80736,-2.154585 -2.94531,-1.894453 -3.4547,0.789732 -10.91553,-1.802693 -9.93472,-0.517028 2.06758,2.710283 6.59811,3.592669 8.29089,2.259194 0.75243,-0.592716 0.87603,3.476185 -0.16411,3.715459 -1.82092,0.418888 -10.14469,0.352569 -14.07633,2.258572 -0.40689,0.159989 -0.77766,0.390796 -1.09568,0.679065 -0.33901,0.278042 -0.60132,0.586921 -0.76745,0.931355 -0.0329,0.06816 -0.0631,0.154048 -0.0917,0.249385 -0.20454,0.452439 -0.31929,0.954818 -0.31929,1.485312 v 15.784893 c 0,1.991673 1.60344,3.595124 3.59512,3.595124 h 5.58356 c 1.99167,0 3.59513,-1.603451 3.59513,-3.595124 V 82.518567 c 0.0446,-2.021272 0.0795,-4.086683 0.11888,-6.134616 0.0198,-1.029925 1.20506,-1.841011 2.17081,-2.19944 1.97005,-0.731171 6.28337,0.51101 6.28337,0.51101 l 8.26912,-0.924093 25.27065,-17.926241 c 1.0707,-0.759515 4.87073,1.276392 7.32282,1.150863 1.76521,-0.09036 -4.50665,-2.732198 -6.4672,-2.783898 z m -49.89729,21.701039 h 1.09796 c 1.99167,0 3.59513,1.603453 3.59513,3.595124 v 11.803866 c 0,1.991673 -1.60346,3.595124 -3.59513,3.595124 h -1.09796 c -1.99167,0 -3.59491,-1.603451 -3.59491,-3.595124 V 79.508315 c 0,-1.991671 1.60324,-3.595124 3.59491,-3.595124 z" />
      <path
         id="path22840"
         style="fill:#e2ded5;fill-opacity:1;stroke:none;stroke-width:0.106227px;stroke-linecap:butt;stroke-linejoin:miter;stroke-opacity:1"
         d="m 350.99786,77.705151 c -2.40134,1.234116 -4.92954,1.72633 -4.94704,3.081417 l -0.32428,25.123542 c -0.0194,1.50491 4.09472,2.69902 8.32535,3.05528 10e-4,6e-5 10e-4,0 0.002,0 0.006,0 0.012,0.001 0.0181,0.002 0.79913,0.0821 1.66572,0.11574 2.56003,0.10601 10e-4,0 0.002,0 0.004,0 0.74158,-0.002 1.45975,-0.0341 2.1316,-0.10063 4.26065,-0.34721 8.43079,-1.54701 8.41124,-3.06211 l -0.32429,-25.123339 c -0.0175,-1.355088 -2.5457,-1.84751 -4.94702,-3.081625 h -3.13847 v -4.24e-4 z" />
      <path
         id="path23519"
         style="fill:#e2ded5;fill-opacity:1;stroke:none;stroke-width:0.106227px;stroke-linecap:butt;stroke-linejoin:miter;stroke-opacity:1"
         d="m 352.42279,73.588229 c -1.06742,0 -1.00135,2.063343 -1.28862,3.015854 h 3.58434 v 0.0064 h 7.08692 c -0.28728,-0.952511 -0.22121,-3.015855 -1.28863,-3.015855 h -2.31314 v -0.0064 z" />
      <path
         id="path39329"
         style="fill:#e2ded5;fill-opacity:1;stroke-width:2.92339"
         d="m 395.33826,66.602931 c 0,1.229438 -0.99665,2.226092 -2.22609,2.226092 -1.22944,0 -2.2261,-0.996654 -2.2261,-2.226092 0,-1.229438 0.99666,-6.378923 2.2261,-6.378923 1.22944,0 2.22609,5.149485 2.22609,6.378923 z"
         sodipodi:nodetypes="ssscs" />
    </g>
  </g>
</svg>
