<?xml version="1.0" encoding="UTF-8" standalone="no"?>
<!-- Created with Inkscape (http://www.inkscape.org/) -->

<svg
   width="8.5in"
   height="11in"
   viewBox="0 0 215.9 279.4"
   version="1.1"
   id="svg12221"
   sodipodi:docname="theshopincanyon-logo-ink.svg"
   inkscape:version="1.1 (c4e8f9e, 2021-05-24)"
   xmlns:inkscape="http://www.inkscape.org/namespaces/inkscape"
   xmlns:sodipodi="http://sodipodi.sourceforge.net/DTD/sodipodi-0.dtd"
   xmlns="http://www.w3.org/2000/svg"
   xmlns:svg="http://www.w3.org/2000/svg">
  <sodipodi:namedview
     id="namedview12223"
     pagecolor="#505050"
     bordercolor="#ffffff"
     borderopacity="1"
     inkscape:pageshadow="0"
     inkscape:pageopacity="0"
     inkscape:pagecheckerboard="1"
     inkscape:document-units="mm"
     showgrid="false"
     inkscape:snap-nodes="true"
     inkscape:snap-global="false"
     inkscape:object-nodes="true"
     inkscape:zoom="0.3535534"
     inkscape:cx="568.51383"
     inkscape:cy="555.78591"
     inkscape:window-width="1366"
     inkscape:window-height="740"
     inkscape:window-x="0"
     inkscape:window-y="0"
     inkscape:window-maximized="1"
     inkscape:current-layer="layer1"
     inkscape:showpageshadow="false"
     fit-margin-top="0"
     fit-margin-left="0"
     fit-margin-right="0"
     fit-margin-bottom="0"
     units="in"
     showguides="true"
     inkscape:guide-bbox="true" />
  <defs
     id="defs12218" />
  <g
     inkscape:label="Layer 1"
     inkscape:groupmode="layer"
     id="layer1"
     transform="translate(-41.78105,-15.46569)">
    <g
       style="opacity:0.511642"
       id="g1011" />
    <g
       id="path23967"
       style="opacity:0.511642" />
    <g
       id="g6146"
       transform="translate(-5.6222307,9.7079009)">
      <g
         id="g27925"
         style="opacity:1;fill:#000000"
         transform="rotate(180,101.25486,67.07207)">
        <path
           style="color:#000000;fill:#000000;stroke-width:4.7625;-inkscape-stroke:none"
           d="m 122.8249,62.129959 h 27.37582 l -4.17052,9.34628 4.17052,9.34628 H 122.8249 Z"
           id="path27921" />
        <path
           id="path27923"
           style="color:#000000;fill:#000000;stroke-width:3.77953;-inkscape-stroke:none"
           d="m 455.21875,225.82031 v 9.00586 79.64258 h 126.3418 l -19.77735,-44.32031 19.77735,-44.32813 z"
           transform="scale(0.26458333)" />
      </g>
      <path
         style="color:#000000;opacity:1;fill:#e2ded5;fill-opacity:1;stroke-width:0.529167;-inkscape-stroke:none"
         d="m 79.684814,72.01418 h -27.37582 l 4.17052,-9.34628 -4.17052,-9.34628 h 27.37582 z"
         id="path27927"
         sodipodi:nodetypes="cccccc" />
      <path
         id="path27929"
         style="opacity:1;fill:#000000;fill-opacity:1;stroke:none;stroke-width:0.264583px;stroke-linecap:butt;stroke-linejoin:miter;stroke-opacity:1"
         d="m 80.271461,72.15268 0.286273,-6.26028 -20.92457,1.71162 z"
         sodipodi:nodetypes="cccc" />
      <g
         id="path27623"
         style="opacity:1;fill:#000000"
         transform="translate(10.102225,-51.42987)">
        <path
           style="color:#000000;fill:#000000;stroke-width:4.7625;-inkscape-stroke:none"
           d="m 122.8249,62.129959 h 27.37582 l -4.17052,9.34628 4.17052,9.34628 H 122.8249 Z"
           id="path27832" />
        <path
           id="path27838"
           style="color:#000000;fill:#000000;stroke-width:3.77953;-inkscape-stroke:none"
           d="m 455.21875,225.82031 v 9.00586 79.64258 h 126.3418 l -19.77735,-44.32031 19.77735,-44.32813 z"
           transform="scale(0.26458333)" />
      </g>
      <path
         style="color:#000000;opacity:1;fill:#e2ded5;fill-opacity:1;stroke-width:0.529167;-inkscape-stroke:none"
         d="m 132.92713,10.700089 h 27.37582 l -4.17052,9.34628 4.17052,9.34628 h -27.37582 z"
         id="path24933"
         sodipodi:nodetypes="cccccc" />
      <path
         id="rect24520"
         style="opacity:1;fill:#000000;stroke-width:0.529167"
         d="M 66.446355,21.158388 152.97889,44.149118 146.1657,61.55579 59.633164,38.56506 Z"
         sodipodi:nodetypes="ccccc" />
      <g
         id="g24518"
         style="opacity:1;fill:#000000"
         transform="translate(-8.8564865,-13.193406)">
        <path
           id="path24516"
           style="color:#000000;fill:#000000;stroke-width:4.7625;-inkscape-stroke:none"
           d="m 68.489651,57.342521 v 2.380734 21.074166 h 93.345719 v -23.4549 z" />
      </g>
      <path
         id="rect23307"
         style="opacity:1;fill:#e2ded5;stroke-width:0.529167"
         d="m 62.014198,46.530281 h 88.583652 v 18.69256 H 62.014198 Z" />
      <g
         id="path24295"
         style="opacity:1;fill:#000000"
         transform="translate(-8.8564865,-42.23236)">
        <path
           id="path24335"
           style="color:#000000;fill:#000000;stroke-width:4.7625;-inkscape-stroke:none"
           d="m 68.489651,57.342521 v 2.380734 21.074166 h 93.345719 v -23.4549 z" />
      </g>
      <path
         style="color:#000000;opacity:1;fill:#e2ded5;fill-opacity:1;stroke-width:0.529167;-inkscape-stroke:none"
         d="M 62.014194,17.49133 H 150.59786 V 36.18389 H 62.014194 Z"
         id="rect23225" />
      <g
         aria-label="THE SHOP"
         id="text12900"
         style="font-size:19.9224px;line-height:1.25;font-family:Balthazar;-inkscape-font-specification:'Balthazar, Normal';opacity:1;stroke-width:0.498062"
         transform="translate(10.102225,-51.42987)">
        <path
           d="m 54.795184,72.221034 2.530145,0.139457 h 2.888748 l 2.530144,-0.139457 0.09961,-0.57775 h 0.378526 l 0.07969,2.828981 h -0.378526 l -0.179302,-0.776974 -2.988359,-0.09961 -0.179302,2.649679 v 4.183704 l 0.239069,3.406731 0.896508,0.139456 -0.01992,0.378526 h -3.805178 l -0.01992,-0.378526 0.896508,-0.139456 0.239068,-3.426653 v -4.183704 l -0.199224,-2.629757 -3.008282,0.09961 -0.179302,0.776974 H 54.23736 l 0.07969,-2.828981 h 0.378526 z"
           id="path16556" />
        <path
           d="m 67.246649,72.818706 -0.239069,3.426652 v 1.07581 h 6.136099 v -1.095732 l -0.239069,-3.40673 -0.796896,-0.09961 0.01992,-0.418371 h 3.40673 l 0.01992,0.378526 -0.597672,0.139457 -0.239068,3.426652 v 4.183704 l 0.239068,3.406731 0.597672,0.139456 -0.01992,0.378526 h -3.40673 l -0.01992,-0.41837 0.796896,-0.09961 0.239069,-3.426653 V 78.655969 H 67.00758 v 1.773093 l 0.239069,3.406731 0.796896,0.09961 -0.01992,0.41837 h -3.40673 l -0.01992,-0.378526 0.597672,-0.139456 0.239068,-3.426653 v -4.183704 l -0.239068,-3.40673 -0.597672,-0.139457 0.01992,-0.378526 h 3.40673 l 0.01992,0.418371 z"
           id="path16558" />
        <path
           d="m 85.615063,73.85467 -2.131696,-0.199224 h -2.948515 l -0.179302,2.589912 v 0.916431 h 3.825101 l 0.159379,-0.57775 h 0.378525 l -0.119534,2.729369 h -0.378526 l -0.09961,-0.796896 H 80.35555 v 1.91255 l 0.179302,2.56999 h 2.948515 l 2.291076,-0.219147 0.33868,-0.796896 0.338681,0.07969 -0.617594,2.828981 -0.358603,-0.01992 0.01992,-0.517982 H 77.96486 l -0.01992,-0.378526 0.597672,-0.139456 0.239068,-3.426653 v -4.183704 l -0.239068,-3.40673 -0.597672,-0.139457 0.01992,-0.378526 h 7.709969 l 0.159379,-0.577749 h 0.378525 l -0.119534,2.928592 h -0.378526 z"
           id="path16560" />
        <path
           d="m 93.763299,81.524794 -0.09961,0.916431 q 1.553947,0.896508 2.769213,0.896508 1.215267,0 1.912551,-0.49806 0.697284,-0.49806 0.697284,-1.294956 0,-0.816819 -0.458216,-1.374646 -0.458215,-0.577749 -1.155499,-0.876585 -0.697284,-0.298836 -1.514102,-0.65744 -0.796896,-0.378525 -1.49418,-0.717206 -0.697284,-0.358603 -1.155499,-1.035965 -0.458215,-0.677361 -0.458215,-1.613714 0,-1.454335 1.195344,-2.350843 1.215266,-0.916431 3.127816,-0.916431 1.175422,0 2.410611,0.378526 l 0.139456,-0.517982 h 0.378527 l -0.15938,3.366885 h -0.378526 l -0.139457,-0.856663 q -1.693403,-1.115655 -2.968437,-1.115655 -0.876586,0 -1.354723,0.398448 -0.478138,0.378526 -0.478138,1.1555 0,0.776973 0.617595,1.3348 0.617594,0.557828 1.49418,0.896508 0.896508,0.338681 1.773093,0.737129 0.896508,0.378526 1.514102,1.155499 0.617591,0.757052 0.617591,1.912551 0,1.753171 -1.294952,2.789136 -1.294956,1.016042 -3.466498,1.016042 -1.275033,0 -2.868825,-0.458215 l -0.278914,0.438293 -0.358603,-0.119535 1.07581,-3.087972 z"
           id="path16562" />
        <path
           d="m 105.33818,72.818706 -0.23907,3.426652 v 1.07581 h 6.1361 v -1.095732 l -0.23907,-3.40673 -0.7969,-0.09961 0.0199,-0.418371 h 3.40673 l 0.0199,0.378526 -0.59768,0.139457 -0.23906,3.426652 v 4.183704 l 0.23906,3.406731 0.59768,0.139456 -0.0199,0.378526 h -3.40673 l -0.0199,-0.41837 0.7969,-0.09961 0.23907,-3.426653 v -1.753171 h -6.1361 v 1.773093 l 0.23907,3.406731 0.79689,0.09961 -0.0199,0.41837 h -3.40673 l -0.0199,-0.378526 0.59767,-0.139456 0.23907,-3.426653 v -4.183704 l -0.23907,-3.40673 -0.59767,-0.139457 0.0199,-0.378526 h 3.40673 l 0.0199,0.418371 z"
           id="path16564" />
        <path
           d="m 121.35575,73.316766 q -1.91255,0 -2.76922,1.235188 -0.83674,1.215267 -0.83674,3.725489 0,2.4903 1.07581,3.785256 1.09573,1.275034 3.00828,1.275034 1.91255,0 2.7493,-1.195344 0.85666,-1.215267 0.85666,-3.745411 0,-2.550068 -1.07581,-3.805179 -1.07581,-1.275033 -3.00828,-1.275033 z m 0.0797,11.335845 q -2.64968,0 -4.12394,-1.633637 -1.47426,-1.653559 -1.47426,-4.582152 0,-2.928592 1.61372,-4.681764 1.61371,-1.753171 4.28331,-1.753171 2.6696,0 4.14386,1.633637 1.47426,1.633637 1.47426,4.56223 0,2.928592 -1.63364,4.701686 -1.61371,1.753171 -4.28331,1.753171 z"
           id="path16566" />
        <path
           d="m 130.14152,83.835793 0.23906,-3.426653 v -4.183704 l -0.23906,-3.386808 -0.59768,-0.139457 0.0199,-0.378525 q 3.62587,-0.07969 4.20362,-0.07969 4.40285,0 4.40285,3.665722 0,1.872705 -1.35472,2.868825 -1.35472,0.976198 -4.04425,0.976198 h -0.79689 v 0.677361 l 0.23906,3.406731 0.7969,0.09961 -0.0199,0.41837 h -3.42665 l -0.0199,-0.378526 z M 133.60801,73.4363 q -0.77697,0 -1.45433,0.219146 l -0.1793,2.589912 v 2.131697 q 0.29883,0.07969 1.27503,0.07969 1.65356,0 2.35084,-0.557827 0.71721,-0.57775 0.71721,-1.892628 0,-2.56999 -2.70945,-2.56999 z"
           id="path16568" />
      </g>
      <g
         aria-label="CANYON, TX"
         id="text17386"
         style="font-size:13.1837px;line-height:1.25;font-family:Balthazar;-inkscape-font-specification:'Balthazar, Normal';opacity:1;stroke-width:0.329593"
         transform="translate(10.102225,-51.42987)">
        <path
           d="m 66.468036,104.07643 q -1.081064,0 -1.661146,0.85694 -0.580083,0.84376 -0.580083,2.4258 0,1.56887 0.60645,2.46536 0.619634,0.8833 1.661146,0.8833 1.054696,0 2.241229,-0.68555 l 0.224123,-0.52735 0.237307,0.0527 -0.46143,2.09621 h -0.263674 l 0.01318,-0.3296 q -0.883308,0.26368 -1.977555,0.26368 -1.67433,0 -2.610373,-1.06788 -0.936042,-1.06788 -0.936042,-3.01907 0,-1.96437 1.015145,-3.12453 1.015144,-1.16017 2.755393,-1.16017 0.870124,0 1.845718,0.32959 l 0.09229,-0.32959 h 0.25049 l -0.09229,2.03029 h -0.25049 l -0.09229,-0.55372 q -1.160166,-0.60645 -2.017106,-0.60645 z"
           id="path12984" />
        <path
           d="m 75.103341,109.38946 -0.25049,-0.69873 h -3.005883 l -0.263674,0.69873 -0.395511,1.64797 0.566899,0.0659 -0.01318,0.27685 H 69.53982 l -0.01318,-0.25049 0.395511,-0.0923 2.979517,-7.29059 -0.500981,-0.0923 0.01318,-0.2505 h 2.162126 l 0.01318,0.2505 -0.50098,0.0923 2.755393,7.29059 0.395511,0.0923 -0.01318,0.25049 h -2.346698 l -0.01318,-0.27685 0.566899,-0.0659 z m -1.687513,-4.69339 -1.226084,3.11135 h 2.346698 z"
           id="path12986" />
        <path
           d="m 78.293778,111.03743 0.158205,-2.2676 v -2.76858 l -0.171388,-2.25441 -0.382328,-0.0923 0.01318,-0.2505 h 2.188494 l 0.01318,0.27686 -0.580083,0.0659 h -0.01318 l 4.152866,5.70854 v -3.45413 l -0.171388,-2.25441 -0.527348,-0.0659 0.01318,-0.27686 h 2.175311 l 0.01318,0.2505 -0.395511,0.0923 -0.158205,2.2676 v 2.41261 l 0.158205,2.61038 0.395511,0.0923 -0.01318,0.25049 H 83.02672 l -0.01318,-0.27685 0.593266,-0.0659 -4.2056,-5.76128 v 3.50686 l 0.158205,2.25442 0.527348,0.0659 -0.01318,0.27685 h -2.162127 l -0.01318,-0.25049 z"
           id="path12988" />
        <path
           d="m 87.772845,103.74684 0.487797,1.41066 1.107431,2.06984 1.133798,-2.04348 0.487797,-1.43702 -0.553715,-0.0659 0.01318,-0.27686 h 2.188495 l 0.01318,0.2505 -0.395511,0.0923 -2.438984,4.27152 v 0.76465 l 0.158204,2.25442 0.593267,0.0923 -0.01318,0.25049 h -2.518087 l -0.01318,-0.25049 0.593266,-0.0923 0.158205,-2.2676 v -0.58008 l -2.478536,-4.44291 -0.395511,-0.0923 0.01318,-0.2505 h 2.359882 l 0.01318,0.27686 z"
           id="path12990" />
        <path
           d="m 96.895951,104.07643 q -1.265636,0 -1.832535,0.81739 -0.553715,0.80421 -0.553715,2.46535 0,1.64797 0.71192,2.50491 0.725103,0.84375 1.990738,0.84375 1.265636,0 1.819351,-0.79102 0.566899,-0.8042 0.566899,-2.47853 0,-1.68752 -0.71192,-2.51809 -0.71192,-0.84376 -1.990738,-0.84376 z m 0.05273,7.50153 q -1.753432,0 -2.729025,-1.08106 -0.975594,-1.09425 -0.975594,-3.03226 0,-1.938 1.067879,-3.09816 1.06788,-1.16017 2.834496,-1.16017 1.766616,0 2.742209,1.08106 0.975594,1.08107 0.975594,3.01907 0,1.938 -1.081063,3.11135 -1.06788,1.16017 -2.834496,1.16017 z"
           id="path12992" />
        <path
           d="m 102.70996,111.03743 0.1582,-2.2676 v -2.76858 l -0.17139,-2.25441 -0.38233,-0.0923 0.0132,-0.2505 h 2.18849 l 0.0132,0.27686 -0.58009,0.0659 h -0.0132 l 4.15286,5.70854 v -3.45413 l -0.17138,-2.25441 -0.52735,-0.0659 0.0132,-0.27686 h 2.17531 l 0.0132,0.2505 -0.39551,0.0923 -0.15821,2.2676 v 2.41261 l 0.15821,2.61038 0.39551,0.0923 -0.0132,0.25049 h -2.13576 l -0.0132,-0.27685 0.59327,-0.0659 -4.2056,-5.76128 v 3.50686 l 0.1582,2.25442 0.52735,0.0659 -0.0132,0.27685 h -2.16212 l -0.0132,-0.25049 z"
           id="path12994" />
        <path
           d="m 110.97612,110.62873 q 0.29004,-0.71192 0.85694,-0.89649 0.92286,0.36914 0.92286,1.17335 0,0.79102 -1.31837,2.45217 l -0.30322,-0.21094 q 0.50098,-0.81739 0.61963,-1.80617 -0.32959,-0.10547 -0.50098,-0.25049 -0.15821,-0.14502 -0.27686,-0.46143 z"
           id="path12996" />
        <path
           d="m 116.22321,103.35133 1.67433,0.0923 h 1.91163 l 1.67433,-0.0923 0.0659,-0.38233 h 0.25049 l 0.0527,1.87209 h -0.25049 l -0.11865,-0.51417 -1.97755,-0.0659 -0.11866,1.75343 v 2.76857 l 0.15821,2.25442 0.59326,0.0923 -0.0132,0.25049 h -2.51809 l -0.0132,-0.25049 0.59327,-0.0923 0.1582,-2.2676 v -2.76858 l -0.13184,-1.74024 -1.99073,0.0659 -0.11866,0.51417 h -0.25049 l 0.0527,-1.87209 h 0.25049 z"
           id="path12998" />
        <path
           d="m 127.44251,105.50027 -1.2129,1.74025 1.41066,2.04348 1.35792,1.75343 0.43506,0.0923 -0.0132,0.25049 h -2.76858 l -0.0132,-0.27685 0.58008,-0.0527 -0.646,-1.41066 -1.08107,-1.58204 -1.02833,1.46339 -0.67236,1.51613 0.58008,0.0659 -0.0132,0.27685 h -2.49172 l -0.0132,-0.25049 0.43506,-0.0923 1.38429,-1.75343 1.31837,-1.95119 -1.23926,-1.83254 -1.34474,-1.75343 -0.38233,-0.0923 0.0132,-0.2505 h 2.7554 l 0.0132,0.27686 -0.646,0.0659 0.67237,1.42384 0.92286,1.35792 0.87012,-1.26563 0.67237,-1.51613 -0.52735,-0.0659 0.0132,-0.27686 h 2.45216 l 0.0132,0.2505 -0.39551,0.0923 z"
           id="path13000" />
      </g>
      <g
         id="g26646"
         style="opacity:1;fill:none;fill-opacity:1"
         transform="translate(-8.8564865,-42.23236)">
        <path
           id="path26644"
           style="color:#000000;fill:none;fill-opacity:1;stroke-width:4.7625;-inkscape-stroke:none"
           d="m 68.489651,57.342521 v 2.380734 21.074166 h 93.345719 v -23.4549 z" />
      </g>
      <path
         id="path26935"
         style="opacity:1;fill:#000000;fill-opacity:1;stroke:none;stroke-width:0.264583px;stroke-linecap:butt;stroke-linejoin:miter;stroke-opacity:1"
         d="m 132.21317,10.541872 -0.93289,5.819109 21.69849,-1.250728 z"
         sodipodi:nodetypes="cccc" />
    </g>
    <g
       id="g27450"
       style="opacity:1"
       transform="translate(-18.958712,9.1975094)" />
    <g
       id="g33352"
       style="fill:#000000;stroke:#000000"
       transform="translate(22.114532,9.1654493)">
      <g
         id="g33310"
         style="fill:#000000;stroke:#000000" />
    </g>
    <rect
       style="opacity:1;fill:none;fill-opacity:1;stroke:none;stroke-width:4.7625;stroke-miterlimit:4;stroke-dasharray:none;stroke-opacity:1"
       id="rect33081"
       width="84.39743"
       height="32.179329"
       x="361.8537"
       y="218.05716" />
    <rect
       style="opacity:1;fill:none;fill-opacity:1;stroke:none;stroke-width:4.7625;stroke-miterlimit:4;stroke-dasharray:none;stroke-opacity:1"
       id="rect33083"
       width="121.53216"
       height="62.385017"
       x="366.93719"
       y="193.0909" />
    <rect
       style="opacity:1;fill:none;fill-opacity:1;stroke:none;stroke-width:4.7625;stroke-miterlimit:4;stroke-dasharray:none;stroke-opacity:1"
       id="rect33187"
       width="79.71109"
       height="34.975159"
       x="363.82251"
       y="201.11818" />
    <rect
       style="opacity:1;fill:none;fill-opacity:1;stroke:none;stroke-width:4.7625;stroke-miterlimit:4;stroke-dasharray:none;stroke-opacity:1"
       id="rect33189"
       width="43.047466"
       height="39.115314"
       x="391.07568"
       y="203.9776" />
    <g
       id="g20962"
       transform="translate(176.05206,147.51901)"
       style="fill:none;fill-opacity:1;stroke:none;stroke-width:0.529167;stroke-miterlimit:4;stroke-dasharray:none;stroke-opacity:1" />
    <g
       id="g5610"
       transform="translate(-43.480567,-21.38456)">
      <path
         id="path2263"
         style="color:#000000;opacity:1;fill:#e2ded5;fill-opacity:1;stroke-width:1;-inkscape-stroke:none"
         d="m 262.93303,97.459347 v 0.52917 0.26564 2.380723 3.61529 H 192.0211 v 3.17604 21.68342 l 15.72668,4.1796 H 192.0211 v 3.17603 3.61736 h -11.42412 l 5.58622,12.51913 -5.58622,12.52376 h 35.44538 v -3.1781 -3.61526 h 70.91248 v -24.85742 l -15.73652,-4.18164 h 15.73652 v -6.79082 h 11.42357 l -5.5857,-12.5217 5.5857,-12.521223 z" />
      <g
         id="g5576"
         transform="translate(133.38517,-4.2310265)">
        <path
           style="color:#000000;fill:#000000;stroke-width:4.7625;-inkscape-stroke:none"
           d="M 79.48136,166.1805 H 52.10554 l 4.17052,-9.34628 -4.17052,-9.34628 h 27.37582 z"
           id="path18484" />
        <path
           id="path18486"
           style="color:#000000;fill:#000000;stroke-width:1;-inkscape-stroke:none"
           d="m 81.862967,168.56217 v -2.3828 -21.0721 H 48.435033 l 5.232757,11.72642 -5.232757,11.72848 z" />
        <path
           style="color:#000000;fill:#e2ded5;fill-opacity:1;stroke-width:0.529167;-inkscape-stroke:none"
           d="M 79.48137,166.18049 H 52.10555 l 4.17052,-9.34628 -4.17052,-9.34628 h 27.37582 z"
           id="path18490"
           sodipodi:nodetypes="cccccc" />
        <path
           id="path18492"
           style="fill:#000000;fill-opacity:1;stroke:none;stroke-width:0.264583px;stroke-linecap:butt;stroke-linejoin:miter;stroke-opacity:1"
           d="m 80.06802,166.31899 0.28627,-6.26028 -20.92457,1.71162 z"
           sodipodi:nodetypes="cccc" />
        <path
           style="color:#000000;fill:#000000;stroke-width:4.7625;-inkscape-stroke:none"
           d="m 132.72368,104.86641 h 27.37582 l -4.17052,9.34628 4.17052,9.34628 h -27.37582 z"
           id="path18494" />
        <path
           id="path18496"
           style="color:#000000;fill:#000000;stroke-width:1;-inkscape-stroke:none"
           d="m 130.34207,102.48474 v 2.3828 21.0721 h 33.42794 l -5.23276,-11.72642 5.23276,-11.72848 z" />
        <path
           style="color:#000000;fill:#e2ded5;fill-opacity:1;stroke-width:0.529167;-inkscape-stroke:none"
           d="m 132.72368,104.86641 h 27.37582 l -4.17052,9.34627 4.17052,9.34628 h -27.37582 z"
           id="path18500"
           sodipodi:nodetypes="cccccc" />
        <path
           id="path18502"
           style="fill:#000000;stroke-width:0.529167"
           d="m 66.24291,115.3247 86.53253,22.99073 -6.81319,17.40667 -86.53253,-22.99073 z"
           sodipodi:nodetypes="ccccc" />
        <path
           id="path18504"
           style="color:#000000;fill:#000000;stroke-width:4.7625;-inkscape-stroke:none"
           d="m 59.429721,138.31543 v 2.38074 21.07416 h 93.345719 v -23.4549 z" />
        <rect
           style="fill:#e2ded5;fill-opacity:1;stroke-width:0.529167"
           id="rect18508"
           width="88.583656"
           height="18.69256"
           x="61.810753"
           y="140.69659" />
        <path
           id="path18510"
           style="color:#000000;fill:#000000;stroke-width:4.7625;-inkscape-stroke:none"
           d="m 59.429721,109.27648 v 2.38073 21.07417 h 93.345719 v -23.4549 z" />
        <path
           style="color:#000000;fill:#e2ded5;fill-opacity:1;stroke-width:0.529167;-inkscape-stroke:none"
           d="m 61.81075,111.65764 h 88.58366 V 130.3502 H 61.81075 Z"
           id="path18514" />
        <path
           d="m 64.693964,114.95748 2.530145,0.13946 h 2.888748 l 2.530144,-0.13946 0.09961,-0.57775 h 0.378526 l 0.07969,2.82898 h -0.378526 l -0.179302,-0.77697 -2.988359,-0.0996 -0.179302,2.64968 v 4.1837 l 0.239069,3.40673 0.896508,0.13946 -0.01992,0.37852 h -3.805178 l -0.01992,-0.37852 0.896508,-0.13946 0.239068,-3.42665 v -4.1837 l -0.199224,-2.62976 -3.008282,0.0996 -0.179302,0.77697 H 64.13614 l 0.07969,-2.82898 h 0.378526 z"
           id="path18516"
           style="font-size:19.9224px;line-height:1.25;font-family:Balthazar;-inkscape-font-specification:'Balthazar, Normal';stroke-width:0.498062" />
        <path
           d="m 77.145429,115.55515 -0.239069,3.42666 v 1.07581 h 6.136099 v -1.09574 l -0.239069,-3.40673 -0.796896,-0.0996 0.01992,-0.41837 h 3.40673 l 0.01992,0.37853 -0.597672,0.13946 -0.239068,3.42665 v 4.1837 l 0.239068,3.40673 0.597672,0.13946 -0.01992,0.37852 h -3.40673 l -0.01992,-0.41837 0.796896,-0.0996 0.239069,-3.42665 v -1.75317 H 76.90636 v 1.77309 l 0.239069,3.40673 0.796896,0.0996 -0.01992,0.41837 h -3.40673 l -0.01992,-0.37853 0.597672,-0.13945 0.239068,-3.42666 v -4.1837 l -0.239068,-3.40673 -0.597672,-0.13946 0.01992,-0.37852 h 3.40673 l 0.01992,0.41837 z"
           id="path18518"
           style="font-size:19.9224px;line-height:1.25;font-family:Balthazar;-inkscape-font-specification:'Balthazar, Normal';stroke-width:0.498062" />
        <path
           d="m 95.513843,116.59112 -2.131696,-0.19923 h -2.948515 l -0.179302,2.58991 v 0.91644 h 3.825101 l 0.159379,-0.57775 h 0.378525 l -0.119534,2.72937 h -0.378526 l -0.09961,-0.7969 H 90.25433 v 1.91255 l 0.179302,2.56999 h 2.948515 l 2.291076,-0.21915 0.33868,-0.79689 0.338681,0.0797 -0.617594,2.82898 -0.358603,-0.0199 0.01992,-0.51799 H 87.86364 l -0.01992,-0.37852 0.597672,-0.13946 0.239068,-3.42665 v -4.1837 l -0.239068,-3.40673 -0.597672,-0.13946 0.01992,-0.37853 h 7.709969 l 0.159379,-0.57775 h 0.378525 l -0.119534,2.9286 h -0.378526 z"
           id="path18520"
           style="font-size:19.9224px;line-height:1.25;font-family:Balthazar;-inkscape-font-specification:'Balthazar, Normal';stroke-width:0.498062" />
        <path
           d="m 103.66208,124.26124 -0.0996,0.91643 q 1.55395,0.89651 2.76921,0.89651 1.21527,0 1.91255,-0.49806 0.69729,-0.49806 0.69729,-1.29496 0,-0.81681 -0.45822,-1.37464 -0.45821,-0.57775 -1.1555,-0.87659 -0.69728,-0.29883 -1.5141,-0.65744 -0.7969,-0.37852 -1.49418,-0.7172 -0.69728,-0.35861 -1.1555,-1.03597 -0.45821,-0.67736 -0.45821,-1.61371 0,-1.45434 1.19534,-2.35085 1.21527,-0.91643 3.12782,-0.91643 1.17542,0 2.41061,0.37853 l 0.13945,-0.51798 h 0.37853 l -0.15938,3.36688 h -0.37853 l -0.13945,-0.85666 q -1.69341,-1.11566 -2.96844,-1.11566 -0.87659,0 -1.35472,0.39845 -0.47814,0.37853 -0.47814,1.1555 0,0.77698 0.61759,1.3348 0.6176,0.55783 1.49418,0.89651 0.89651,0.33868 1.7731,0.73713 0.89651,0.37853 1.5141,1.1555 0.61759,0.75705 0.61759,1.91255 0,1.75317 -1.29495,2.78914 -1.29496,1.01604 -3.4665,1.01604 -1.27503,0 -2.86882,-0.45822 l -0.27892,0.4383 -0.3586,-0.11954 1.07581,-3.08797 z"
           id="path18522"
           style="font-size:19.9224px;line-height:1.25;font-family:Balthazar;-inkscape-font-specification:'Balthazar, Normal';stroke-width:0.498062" />
        <path
           d="m 115.23696,115.55515 -0.23907,3.42666 v 1.07581 h 6.1361 v -1.09574 l -0.23907,-3.40673 -0.7969,-0.0996 0.0199,-0.41837 h 3.40673 l 0.0199,0.37853 -0.59768,0.13946 -0.23906,3.42665 v 4.1837 l 0.23906,3.40673 0.59768,0.13946 -0.0199,0.37852 h -3.40673 l -0.0199,-0.41837 0.7969,-0.0996 0.23907,-3.42665 v -1.75317 h -6.1361 v 1.77309 l 0.23907,3.40673 0.79689,0.0996 -0.0199,0.41837 h -3.40673 l -0.0199,-0.37852 0.59767,-0.13946 0.23907,-3.42665 v -4.1837 l -0.23907,-3.40673 -0.59767,-0.13946 0.0199,-0.37853 h 3.40673 l 0.0199,0.41837 z"
           id="path18524"
           style="font-size:19.9224px;line-height:1.25;font-family:Balthazar;-inkscape-font-specification:'Balthazar, Normal';stroke-width:0.498062" />
        <path
           d="m 131.25453,116.05321 q -1.91255,0 -2.76922,1.23519 -0.83674,1.21527 -0.83674,3.72549 0,2.4903 1.07581,3.78526 1.09573,1.27503 3.00828,1.27503 1.91255,0 2.7493,-1.19534 0.85666,-1.21527 0.85666,-3.74542 0,-2.55006 -1.07581,-3.80517 -1.07581,-1.27504 -3.00828,-1.27504 z m 0.0797,11.33585 q -2.64968,0 -4.12394,-1.63364 -1.47426,-1.65356 -1.47426,-4.58215 0,-2.92859 1.61372,-4.68176 1.61371,-1.75318 4.28331,-1.75318 2.6696,0 4.14386,1.63364 1.47426,1.63364 1.47426,4.56223 0,2.92859 -1.63364,4.70169 -1.61371,1.75317 -4.28331,1.75317 z"
           id="path18526"
           style="font-size:19.9224px;line-height:1.25;font-family:Balthazar;-inkscape-font-specification:'Balthazar, Normal';stroke-width:0.498062" />
        <path
           d="m 140.0403,126.57224 0.23906,-3.42665 v -4.18371 l -0.23906,-3.38681 -0.59768,-0.13945 0.0199,-0.37853 q 3.62587,-0.0797 4.20362,-0.0797 4.40285,0 4.40285,3.66572 0,1.87271 -1.35472,2.86883 -1.35472,0.9762 -4.04425,0.9762 h -0.79689 v 0.67736 l 0.23906,3.40673 0.7969,0.0996 -0.0199,0.41837 h -3.42665 l -0.0199,-0.37853 z m 3.46649,-10.39949 q -0.77697,0 -1.45433,0.21914 l -0.1793,2.58991 v 2.1317 q 0.29883,0.0797 1.27503,0.0797 1.65356,0 2.35084,-0.55783 0.71721,-0.57774 0.71721,-1.89262 0,-2.56999 -2.70945,-2.56999 z"
           id="path18528"
           style="font-size:19.9224px;line-height:1.25;font-family:Balthazar;-inkscape-font-specification:'Balthazar, Normal';stroke-width:0.498062" />
        <path
           d="m 76.366816,146.81288 q -1.081064,0 -1.661146,0.85694 -0.580083,0.84376 -0.580083,2.4258 0,1.56887 0.60645,2.46536 0.619634,0.8833 1.661146,0.8833 1.054696,0 2.241229,-0.68555 l 0.224123,-0.52735 0.237307,0.0527 -0.46143,2.09621 h -0.263674 l 0.01318,-0.3296 q -0.883308,0.26368 -1.977555,0.26368 -1.67433,0 -2.610373,-1.06788 -0.936042,-1.06788 -0.936042,-3.01907 0,-1.96437 1.015145,-3.12453 1.015144,-1.16017 2.755393,-1.16017 0.870124,0 1.845718,0.32959 l 0.09229,-0.32959 h 0.25049 l -0.09229,2.03029 h -0.25049 l -0.09229,-0.55372 q -1.160166,-0.60645 -2.017106,-0.60645 z"
           id="path18532"
           style="font-size:13.1837px;line-height:1.25;font-family:Balthazar;-inkscape-font-specification:'Balthazar, Normal';stroke-width:0.329593" />
        <path
           d="m 85.002121,152.12591 -0.25049,-0.69873 h -3.005883 l -0.263674,0.69873 -0.395511,1.64797 0.566899,0.0659 -0.01318,0.27685 H 79.4386 l -0.01318,-0.25049 0.395511,-0.0923 2.979517,-7.29059 -0.500981,-0.0923 0.01318,-0.2505 h 2.162126 l 0.01318,0.2505 -0.50098,0.0923 2.755393,7.29059 0.395511,0.0923 -0.01318,0.25049 h -2.346698 l -0.01318,-0.27685 0.566899,-0.0659 z m -1.687513,-4.69339 -1.226084,3.11135 h 2.346698 z"
           id="path18534"
           style="font-size:13.1837px;line-height:1.25;font-family:Balthazar;-inkscape-font-specification:'Balthazar, Normal';stroke-width:0.329593" />
        <path
           d="m 88.192558,153.77388 0.158205,-2.2676 v -2.76858 l -0.171388,-2.25441 -0.382328,-0.0923 0.01318,-0.2505 h 2.188494 l 0.01318,0.27686 -0.580083,0.0659 h -0.01318 l 4.152866,5.70854 v -3.45413 l -0.171388,-2.25441 -0.527348,-0.0659 0.01318,-0.27686 h 2.175311 l 0.01318,0.2505 -0.395511,0.0923 -0.158205,2.2676 v 2.41261 l 0.158205,2.61038 0.395511,0.0923 -0.01318,0.25049 H 92.9255 l -0.01318,-0.27685 0.593266,-0.0659 -4.2056,-5.76128 v 3.50686 l 0.158205,2.25442 0.527348,0.0659 -0.01318,0.27685 h -2.162127 l -0.01318,-0.25049 z"
           id="path18536"
           style="font-size:13.1837px;line-height:1.25;font-family:Balthazar;-inkscape-font-specification:'Balthazar, Normal';stroke-width:0.329593" />
        <path
           d="m 97.671625,146.48329 0.487797,1.41066 1.107431,2.06984 1.133797,-2.04348 0.4878,-1.43702 -0.55372,-0.0659 0.0132,-0.27686 h 2.1885 l 0.0132,0.2505 -0.39551,0.0923 -2.438987,4.27152 v 0.76465 l 0.158204,2.25442 0.593263,0.0923 -0.0132,0.25049 h -2.518083 l -0.01318,-0.25049 0.593266,-0.0923 0.158205,-2.2676 v -0.58008 l -2.478536,-4.44291 -0.395511,-0.0923 0.01318,-0.2505 h 2.359882 l 0.01318,0.27686 z"
           id="path18538"
           style="font-size:13.1837px;line-height:1.25;font-family:Balthazar;-inkscape-font-specification:'Balthazar, Normal';stroke-width:0.329593" />
        <path
           d="m 106.79473,146.81288 q -1.26564,0 -1.83253,0.81739 -0.55372,0.80421 -0.55372,2.46535 0,1.64797 0.71192,2.50491 0.7251,0.84375 1.99074,0.84375 1.26563,0 1.81935,-0.79102 0.5669,-0.8042 0.5669,-2.47853 0,-1.68752 -0.71192,-2.51809 -0.71192,-0.84376 -1.99074,-0.84376 z m 0.0527,7.50153 q -1.75343,0 -2.72902,-1.08106 -0.9756,-1.09425 -0.9756,-3.03226 0,-1.938 1.06788,-3.09816 1.06788,-1.16017 2.8345,-1.16017 1.76661,0 2.74221,1.08106 0.97559,1.08107 0.97559,3.01907 0,1.938 -1.08106,3.11135 -1.06788,1.16017 -2.8345,1.16017 z"
           id="path18540"
           style="font-size:13.1837px;line-height:1.25;font-family:Balthazar;-inkscape-font-specification:'Balthazar, Normal';stroke-width:0.329593" />
        <path
           d="m 112.60874,153.77388 0.1582,-2.2676 v -2.76858 l -0.17139,-2.25441 -0.38233,-0.0923 0.0132,-0.2505 h 2.18849 l 0.0132,0.27686 -0.58009,0.0659 h -0.0132 l 4.15286,5.70854 v -3.45413 l -0.17138,-2.25441 -0.52735,-0.0659 0.0132,-0.27686 h 2.17531 l 0.0132,0.2505 -0.39551,0.0923 -0.15821,2.2676 v 2.41261 l 0.15821,2.61038 0.39551,0.0923 -0.0132,0.25049 h -2.13576 l -0.0132,-0.27685 0.59327,-0.0659 -4.2056,-5.76128 v 3.50686 l 0.1582,2.25442 0.52735,0.0659 -0.0132,0.27685 h -2.16212 l -0.0132,-0.25049 z"
           id="path18542"
           style="font-size:13.1837px;line-height:1.25;font-family:Balthazar;-inkscape-font-specification:'Balthazar, Normal';stroke-width:0.329593" />
        <path
           d="m 120.8749,153.36518 q 0.29004,-0.71192 0.85694,-0.89649 0.92286,0.36914 0.92286,1.17335 0,0.79102 -1.31837,2.45217 l -0.30322,-0.21094 q 0.50098,-0.81739 0.61963,-1.80617 -0.32959,-0.10547 -0.50098,-0.25049 -0.15821,-0.14502 -0.27686,-0.46143 z"
           id="path18544"
           style="font-size:13.1837px;line-height:1.25;font-family:Balthazar;-inkscape-font-specification:'Balthazar, Normal';stroke-width:0.329593" />
        <path
           d="m 126.12199,146.08778 1.67433,0.0923 h 1.91163 l 1.67433,-0.0923 0.0659,-0.38233 h 0.25049 l 0.0527,1.87209 h -0.25049 l -0.11865,-0.51417 -1.97755,-0.0659 -0.11866,1.75343 v 2.76857 l 0.15821,2.25442 0.59326,0.0923 -0.0132,0.25049 h -2.51809 l -0.0132,-0.25049 0.59327,-0.0923 0.1582,-2.2676 v -2.76858 l -0.13184,-1.74024 -1.99073,0.0659 -0.11866,0.51417 h -0.25049 l 0.0527,-1.87209 h 0.25049 z"
           id="path18546"
           style="font-size:13.1837px;line-height:1.25;font-family:Balthazar;-inkscape-font-specification:'Balthazar, Normal';stroke-width:0.329593" />
        <path
           d="m 137.34129,148.23672 -1.2129,1.74025 1.41066,2.04348 1.35792,1.75343 0.43506,0.0923 -0.0132,0.25049 h -2.76858 l -0.0132,-0.27685 0.58008,-0.0527 -0.646,-1.41066 -1.08107,-1.58204 -1.02833,1.46339 -0.67236,1.51613 0.58008,0.0659 -0.0132,0.27685 h -2.49172 l -0.0132,-0.25049 0.43506,-0.0923 1.38429,-1.75343 1.31837,-1.95119 -1.23926,-1.83254 -1.34474,-1.75343 -0.38233,-0.0923 0.0132,-0.2505 h 2.7554 l 0.0132,0.27686 -0.646,0.0659 0.67237,1.42384 0.92286,1.35792 0.87012,-1.26563 0.67237,-1.51613 -0.52735,-0.0659 0.0132,-0.27686 h 2.45216 l 0.0132,0.2505 -0.39551,0.0923 z"
           id="path18548"
           style="font-size:13.1837px;line-height:1.25;font-family:Balthazar;-inkscape-font-specification:'Balthazar, Normal';stroke-width:0.329593" />
        <path
           id="path18552"
           style="color:#000000;fill:none;fill-opacity:1;stroke-width:4.7625;-inkscape-stroke:none"
           d="m 59.429721,109.27648 v 2.38073 21.07417 h 93.345719 v -23.4549 z" />
        <path
           id="path18556"
           style="fill:#000000;fill-opacity:1;stroke:none;stroke-width:0.264583px;stroke-linecap:butt;stroke-linejoin:miter;stroke-opacity:1"
           d="m 132.00973,104.70819 -0.9329,5.8191 21.6985,-1.25072 z"
           sodipodi:nodetypes="cccc" />
      </g>
    </g>
    <g
       id="g3998"
       transform="translate(-236.95311,119.30744)">
      <path
         id="path3421"
         style="color:#000000;fill:#e2ded5;fill-opacity:1;stroke-width:1;-inkscape-stroke:none"
         d="m 363.74875,33.459616 v 0.52917 0.26564 2.38072 3.61529 h -70.91193 v 3.17604 21.68342 l 15.72668,4.1796 h -15.72668 v 3.17603 3.61736 H 281.4127 l 5.58622,12.51913 -5.58622,12.523764 h 35.44538 v -3.178104 -3.61526 h 70.91248 v -24.85742 l -15.73652,-4.18164 h 15.73652 v -6.79082 h 11.42357 l -5.5857,-12.5217 5.5857,-12.52122 z" />
      <path
         style="color:#000000;fill:#000000;stroke-width:4.7625;-inkscape-stroke:none"
         d="m 313.68225,97.949736 h -27.37582 l 4.17052,-9.34628 -4.17052,-9.34628 h 27.37582 z"
         id="path3423" />
      <path
         id="path3425"
         style="color:#000000;fill:#000000;stroke-width:1;-inkscape-stroke:none"
         d="m 316.06386,100.33141 v -2.382804 -21.0721 h -33.42794 l 5.23276,11.72642 -5.23276,11.728484 z" />
      <path
         style="color:#000000;fill:#e2ded5;fill-opacity:1;stroke-width:0.529167;-inkscape-stroke:none"
         d="m 313.68226,97.949726 h -27.37582 l 4.17052,-9.34628 -4.17052,-9.34628 h 27.37582 z"
         id="path3427"
         sodipodi:nodetypes="cccccc" />
      <path
         id="path3429"
         style="fill:#000000;fill-opacity:1;stroke:none;stroke-width:0.264583px;stroke-linecap:butt;stroke-linejoin:miter;stroke-opacity:1"
         d="m 314.26891,98.088226 0.28627,-6.26028 -20.92457,1.71162 z"
         sodipodi:nodetypes="cccc" />
      <path
         style="color:#000000;fill:#000000;stroke-width:4.7625;-inkscape-stroke:none"
         d="m 366.92457,36.635646 h 27.37582 l -4.17052,9.34628 4.17052,9.34628 h -27.37582 z"
         id="path3431" />
      <path
         id="path3433"
         style="color:#000000;fill:#000000;stroke-width:1;-inkscape-stroke:none"
         d="m 364.54296,34.253976 v 2.3828 21.0721 h 33.42794 l -5.23276,-11.72642 5.23276,-11.72848 z" />
      <path
         style="color:#000000;fill:#e2ded5;fill-opacity:1;stroke-width:0.529167;-inkscape-stroke:none"
         d="m 366.92457,36.635646 h 27.37582 l -4.17052,9.34627 4.17052,9.34628 h -27.37582 z"
         id="path3435"
         sodipodi:nodetypes="cccccc" />
      <path
         id="path3437"
         style="fill:#000000;stroke-width:0.529167"
         d="m 300.4438,47.093936 86.53253,22.99073 -6.81319,17.40667 -86.53253,-22.99073 z"
         sodipodi:nodetypes="ccccc" />
      <path
         id="path3439"
         style="color:#000000;fill:#000000;stroke-width:4.7625;-inkscape-stroke:none"
         d="m 293.63061,70.084666 v 2.38074 21.07416 h 93.34572 v -23.4549 z" />
      <rect
         style="fill:#e2ded5;fill-opacity:1;stroke-width:0.529167"
         id="rect3441"
         width="88.584"
         height="18.69256"
         x="296.01163"
         y="72.465828" />
      <path
         id="path3443"
         style="color:#000000;fill:#000000;stroke-width:4.7625;-inkscape-stroke:none"
         d="m 293.63061,41.045716 v 2.38073 21.07417 h 93.34572 v -23.4549 z" />
      <path
         style="color:#000000;fill:#e2ded5;fill-opacity:1;stroke-width:0.529167;-inkscape-stroke:none"
         d="m 296.01164,43.426876 h 88.58366 v 18.69256 h -88.58366 z"
         id="path3445" />
      <path
         d="m 298.89485,46.726716 2.53015,0.13946 h 2.88875 l 2.53014,-0.13946 0.0996,-0.57775 h 0.37853 l 0.0797,2.82898 h -0.37853 l -0.1793,-0.77697 -2.98836,-0.0996 -0.1793,2.64968 v 4.1837 l 0.23907,3.40673 0.8965,0.13946 -0.0199,0.37852 h -3.80517 l -0.0199,-0.37852 0.8965,-0.13946 0.23907,-3.42665 v -4.1837 l -0.19922,-2.62976 -3.00828,0.0996 -0.17931,0.77697 h -0.37852 l 0.0797,-2.82898 h 0.37853 z"
         id="path3447"
         style="font-size:19.9224px;line-height:1.25;font-family:Balthazar;-inkscape-font-specification:'Balthazar, Normal';stroke-width:0.498062" />
      <path
         d="m 311.34632,47.324386 -0.23907,3.42666 v 1.07581 h 6.1361 v -1.09574 l -0.23907,-3.40673 -0.7969,-0.0996 0.0199,-0.41837 h 3.40673 l 0.0199,0.37853 -0.59767,0.13946 -0.23907,3.42665 v 4.1837 l 0.23907,3.40673 0.59767,0.13946 -0.0199,0.37852 h -3.40673 l -0.0199,-0.41837 0.7969,-0.0996 0.23907,-3.42665 v -1.75317 h -6.1361 v 1.77309 l 0.23907,3.40673 0.7969,0.0996 -0.0199,0.41837 h -3.40673 l -0.0199,-0.37853 0.59767,-0.13945 0.23907,-3.42666 v -4.1837 l -0.23907,-3.40673 -0.59767,-0.13946 0.0199,-0.37852 h 3.40673 l 0.0199,0.41837 z"
         id="path3449"
         style="font-size:19.9224px;line-height:1.25;font-family:Balthazar;-inkscape-font-specification:'Balthazar, Normal';stroke-width:0.498062" />
      <path
         d="m 329.71473,48.360356 -2.13169,-0.19923 h -2.94852 l -0.1793,2.58991 v 0.91644 h 3.8251 l 0.15938,-0.57775 h 0.37852 l -0.11953,2.72937 h -0.37853 l -0.0996,-0.7969 h -3.76533 v 1.91255 l 0.1793,2.56999 h 2.94852 l 2.29107,-0.21915 0.33868,-0.79689 0.33868,0.0797 -0.61759,2.82898 -0.3586,-0.0199 0.0199,-0.51799 h -7.53067 l -0.0199,-0.37852 0.59767,-0.13946 0.23907,-3.42665 v -4.1837 l -0.23907,-3.40673 -0.59767,-0.13946 0.0199,-0.37853 h 7.70997 l 0.15938,-0.57775 h 0.37852 l -0.11953,2.9286 h -0.37853 z"
         id="path3451"
         style="font-size:19.9224px;line-height:1.25;font-family:Balthazar;-inkscape-font-specification:'Balthazar, Normal';stroke-width:0.498062" />
      <path
         d="m 337.86297,56.030476 -0.0996,0.91643 q 1.55395,0.89651 2.76921,0.89651 1.21527,0 1.91255,-0.49806 0.69729,-0.49806 0.69729,-1.29496 0,-0.81681 -0.45822,-1.37464 -0.45821,-0.57775 -1.1555,-0.87659 -0.69728,-0.29883 -1.5141,-0.65744 -0.7969,-0.37852 -1.49418,-0.7172 -0.69728,-0.35861 -1.1555,-1.03597 -0.45821,-0.67736 -0.45821,-1.61371 0,-1.45434 1.19534,-2.35085 1.21527,-0.91643 3.12782,-0.91643 1.17542,0 2.41061,0.37853 l 0.13945,-0.51798 h 0.37853 l -0.15938,3.36688 h -0.37853 l -0.13945,-0.85666 q -1.69341,-1.11566 -2.96844,-1.11566 -0.87659,0 -1.35472,0.39845 -0.47814,0.37853 -0.47814,1.1555 0,0.77698 0.61759,1.3348 0.6176,0.55783 1.49418,0.89651 0.89651,0.33868 1.7731,0.73713 0.89651,0.37853 1.5141,1.1555 0.61759,0.75705 0.61759,1.91255 0,1.75317 -1.29495,2.78914 -1.29496,1.01604 -3.4665,1.01604 -1.27503,0 -2.86882,-0.45822 l -0.27892,0.4383 -0.3586,-0.11954 1.07581,-3.08797 z"
         id="path3453"
         style="font-size:19.9224px;line-height:1.25;font-family:Balthazar;-inkscape-font-specification:'Balthazar, Normal';stroke-width:0.498062" />
      <path
         d="m 349.43785,47.324386 -0.23907,3.42666 v 1.07581 h 6.1361 v -1.09574 l -0.23907,-3.40673 -0.7969,-0.0996 0.0199,-0.41837 h 3.40673 l 0.0199,0.37853 -0.59768,0.13946 -0.23906,3.42665 v 4.1837 l 0.23906,3.40673 0.59768,0.13946 -0.0199,0.37852 h -3.40673 l -0.0199,-0.41837 0.7969,-0.0996 0.23907,-3.42665 v -1.75317 h -6.1361 v 1.77309 l 0.23907,3.40673 0.79689,0.0996 -0.0199,0.41837 h -3.40673 l -0.0199,-0.37852 0.59767,-0.13946 0.23907,-3.42665 v -4.1837 l -0.23907,-3.40673 -0.59767,-0.13946 0.0199,-0.37853 h 3.40673 l 0.0199,0.41837 z"
         id="path3455"
         style="font-size:19.9224px;line-height:1.25;font-family:Balthazar;-inkscape-font-specification:'Balthazar, Normal';stroke-width:0.498062" />
      <path
         d="m 365.45542,47.822446 q -1.91255,0 -2.76922,1.23519 -0.83674,1.21527 -0.83674,3.72549 0,2.4903 1.07581,3.78526 1.09573,1.27503 3.00828,1.27503 1.91255,0 2.7493,-1.19534 0.85666,-1.21527 0.85666,-3.74542 0,-2.55006 -1.07581,-3.80517 -1.07581,-1.27504 -3.00828,-1.27504 z m 0.0797,11.33585 q -2.64968,0 -4.12394,-1.63364 -1.47426,-1.65356 -1.47426,-4.58215 0,-2.92859 1.61372,-4.68176 1.61371,-1.75318 4.28331,-1.75318 2.6696,0 4.14386,1.63364 1.47426,1.63364 1.47426,4.56223 0,2.92859 -1.63364,4.70169 -1.61371,1.75317 -4.28331,1.75317 z"
         id="path3457"
         style="font-size:19.9224px;line-height:1.25;font-family:Balthazar;-inkscape-font-specification:'Balthazar, Normal';stroke-width:0.498062" />
      <path
         d="m 374.24119,58.341476 0.23906,-3.42665 v -4.18371 l -0.23906,-3.38681 -0.59768,-0.13945 0.0199,-0.37853 q 3.62587,-0.0797 4.20362,-0.0797 4.40285,0 4.40285,3.66572 0,1.87271 -1.35472,2.86883 -1.35472,0.9762 -4.04425,0.9762 h -0.79689 v 0.67736 l 0.23906,3.40673 0.7969,0.0996 -0.0199,0.41837 h -3.42665 l -0.0199,-0.37853 z m 3.46649,-10.39949 q -0.77697,0 -1.45433,0.21914 l -0.1793,2.58991 v 2.1317 q 0.29883,0.0797 1.27503,0.0797 1.65356,0 2.35084,-0.55783 0.71721,-0.57774 0.71721,-1.89262 0,-2.56999 -2.70945,-2.56999 z"
         id="path3459"
         style="font-size:19.9224px;line-height:1.25;font-family:Balthazar;-inkscape-font-specification:'Balthazar, Normal';stroke-width:0.498062" />
      <path
         d="m 310.56771,78.582116 q -1.08107,0 -1.66115,0.85694 -0.58008,0.84376 -0.58008,2.4258 0,1.56887 0.60645,2.46536 0.61963,0.8833 1.66114,0.8833 1.0547,0 2.24123,-0.68555 l 0.22413,-0.52735 0.2373,0.0527 -0.46143,2.09621 h -0.26367 l 0.0132,-0.3296 q -0.88331,0.26368 -1.97756,0.26368 -1.67433,0 -2.61037,-1.06788 -0.93604,-1.06788 -0.93604,-3.01907 0,-1.96437 1.01514,-3.12453 1.01515,-1.16017 2.7554,-1.16017 0.87012,0 1.84571,0.32959 l 0.0923,-0.32959 h 0.25049 l -0.0923,2.03029 h -0.25049 l -0.0923,-0.55372 q -1.16016,-0.60645 -2.0171,-0.60645 z"
         id="path3461"
         style="font-size:13.1837px;line-height:1.25;font-family:Balthazar;-inkscape-font-specification:'Balthazar, Normal';stroke-width:0.329593" />
      <path
         d="m 319.20301,83.895146 -0.25049,-0.69873 h -3.00588 l -0.26368,0.69873 -0.39551,1.64797 0.5669,0.0659 -0.0132,0.27685 h -2.20168 l -0.0132,-0.25049 0.39551,-0.0923 2.97952,-7.29059 -0.50098,-0.0923 0.0132,-0.2505 h 2.16212 l 0.0132,0.2505 -0.50098,0.0923 2.7554,7.29059 0.39551,0.0923 -0.0132,0.25049 h -2.3467 l -0.0132,-0.27685 0.5669,-0.0659 z m -1.68751,-4.69339 -1.22609,3.11135 h 2.3467 z"
         id="path3463"
         style="font-size:13.1837px;line-height:1.25;font-family:Balthazar;-inkscape-font-specification:'Balthazar, Normal';stroke-width:0.329593" />
      <path
         d="m 322.39345,85.543116 0.1582,-2.2676 v -2.76858 l -0.17139,-2.25441 -0.38232,-0.0923 0.0132,-0.2505 h 2.18849 l 0.0132,0.27686 -0.58008,0.0659 h -0.0132 l 4.15286,5.70854 v -3.45413 l -0.17138,-2.25441 -0.52735,-0.0659 0.0132,-0.27686 h 2.17531 l 0.0132,0.2505 -0.39551,0.0923 -0.15821,2.2676 v 2.41261 l 0.15821,2.61038 0.39551,0.0923 -0.0132,0.25049 h -2.13576 l -0.0132,-0.27685 0.59327,-0.0659 -4.2056,-5.76128 v 3.50686 l 0.1582,2.25442 0.52735,0.0659 -0.0132,0.27685 h -2.16213 l -0.0132,-0.25049 z"
         id="path3465"
         style="font-size:13.1837px;line-height:1.25;font-family:Balthazar;-inkscape-font-specification:'Balthazar, Normal';stroke-width:0.329593" />
      <path
         d="m 331.87251,78.252526 0.4878,1.41066 1.10743,2.06984 1.1338,-2.04348 0.4878,-1.43702 -0.55372,-0.0659 0.0132,-0.27686 h 2.1885 l 0.0132,0.2505 -0.39551,0.0923 -2.43899,4.27152 v 0.76465 l 0.15821,2.25442 0.59326,0.0923 -0.0132,0.25049 h -2.51808 l -0.0132,-0.25049 0.59326,-0.0923 0.15821,-2.2676 v -0.58008 l -2.47854,-4.44291 -0.39551,-0.0923 0.0132,-0.2505 h 2.35988 l 0.0132,0.27686 z"
         id="path3467"
         style="font-size:13.1837px;line-height:1.25;font-family:Balthazar;-inkscape-font-specification:'Balthazar, Normal';stroke-width:0.329593" />
      <path
         d="m 340.99562,78.582116 q -1.26564,0 -1.83253,0.81739 -0.55372,0.80421 -0.55372,2.46535 0,1.64797 0.71192,2.50491 0.7251,0.84375 1.99074,0.84375 1.26563,0 1.81935,-0.79102 0.5669,-0.8042 0.5669,-2.47853 0,-1.68752 -0.71192,-2.51809 -0.71192,-0.84376 -1.99074,-0.84376 z m 0.0527,7.50153 q -1.75343,0 -2.72902,-1.08106 -0.9756,-1.09425 -0.9756,-3.03226 0,-1.938 1.06788,-3.09816 1.06788,-1.16017 2.8345,-1.16017 1.76661,0 2.74221,1.08106 0.97559,1.08107 0.97559,3.01907 0,1.938 -1.08106,3.11135 -1.06788,1.16017 -2.8345,1.16017 z"
         id="path3469"
         style="font-size:13.1837px;line-height:1.25;font-family:Balthazar;-inkscape-font-specification:'Balthazar, Normal';stroke-width:0.329593" />
      <path
         d="m 346.80963,85.543116 0.1582,-2.2676 v -2.76858 l -0.17139,-2.25441 -0.38233,-0.0923 0.0132,-0.2505 h 2.18849 l 0.0132,0.27686 -0.58009,0.0659 h -0.0132 l 4.15286,5.70854 v -3.45413 l -0.17138,-2.25441 -0.52735,-0.0659 0.0132,-0.27686 h 2.17531 l 0.0132,0.2505 -0.39551,0.0923 -0.15821,2.2676 v 2.41261 l 0.15821,2.61038 0.39551,0.0923 -0.0132,0.25049 h -2.13576 l -0.0132,-0.27685 0.59327,-0.0659 -4.2056,-5.76128 v 3.50686 l 0.1582,2.25442 0.52735,0.0659 -0.0132,0.27685 h -2.16212 l -0.0132,-0.25049 z"
         id="path3471"
         style="font-size:13.1837px;line-height:1.25;font-family:Balthazar;-inkscape-font-specification:'Balthazar, Normal';stroke-width:0.329593" />
      <path
         d="m 355.07579,85.134416 q 0.29004,-0.71192 0.85694,-0.89649 0.92286,0.36914 0.92286,1.17335 0,0.79102 -1.31837,2.45217 l -0.30322,-0.21094 q 0.50098,-0.81739 0.61963,-1.80617 -0.32959,-0.10547 -0.50098,-0.25049 -0.15821,-0.14502 -0.27686,-0.46143 z"
         id="path3473"
         style="font-size:13.1837px;line-height:1.25;font-family:Balthazar;-inkscape-font-specification:'Balthazar, Normal';stroke-width:0.329593" />
      <path
         d="m 360.32288,77.857016 1.67433,0.0923 h 1.91163 l 1.67433,-0.0923 0.0659,-0.38233 h 0.25049 l 0.0527,1.87209 h -0.25049 l -0.11865,-0.51417 -1.97755,-0.0659 -0.11866,1.75343 v 2.76857 l 0.15821,2.25442 0.59326,0.0923 -0.0132,0.25049 h -2.51809 l -0.0132,-0.25049 0.59327,-0.0923 0.1582,-2.2676 v -2.76858 l -0.13184,-1.74024 -1.99073,0.0659 -0.11866,0.51417 h -0.25049 l 0.0527,-1.87209 h 0.25049 z"
         id="path3475"
         style="font-size:13.1837px;line-height:1.25;font-family:Balthazar;-inkscape-font-specification:'Balthazar, Normal';stroke-width:0.329593" />
      <path
         d="m 371.54218,80.005956 -1.2129,1.74025 1.41066,2.04348 1.35792,1.75343 0.43506,0.0923 -0.0132,0.25049 h -2.76858 l -0.0132,-0.27685 0.58008,-0.0527 -0.646,-1.41066 -1.08107,-1.58204 -1.02833,1.46339 -0.67236,1.51613 0.58008,0.0659 -0.0132,0.27685 h -2.49172 l -0.0132,-0.25049 0.43506,-0.0923 1.38429,-1.75343 1.31837,-1.95119 -1.23926,-1.83254 -1.34474,-1.75343 -0.38233,-0.0923 0.0132,-0.2505 h 2.7554 l 0.0132,0.27686 -0.646,0.0659 0.67237,1.42384 0.92286,1.35792 0.87012,-1.26563 0.67237,-1.51613 -0.52735,-0.0659 0.0132,-0.27686 h 2.45216 l 0.0132,0.2505 -0.39551,0.0923 z"
         id="path3477"
         style="font-size:13.1837px;line-height:1.25;font-family:Balthazar;-inkscape-font-specification:'Balthazar, Normal';stroke-width:0.329593" />
      <path
         id="path3479"
         style="color:#000000;fill:none;fill-opacity:1;stroke-width:4.7625;-inkscape-stroke:none"
         d="m 293.63061,41.045716 v 2.38073 21.07417 h 93.34572 v -23.4549 z" />
      <path
         id="path3481"
         style="fill:#000000;fill-opacity:1;stroke:none;stroke-width:0.264583px;stroke-linecap:butt;stroke-linejoin:miter;stroke-opacity:1"
         d="m 366.21062,36.477426 -0.9329,5.8191 21.6985,-1.25072 z"
         sodipodi:nodetypes="cccc" />
      <rect
         style="opacity:1;fill:#000000;stroke:none;stroke-width:1.02926;stroke-miterlimit:4;stroke-dasharray:none"
         id="rect3571"
         width="7.5912838"
         height="0.92604166"
         x="297.55048"
         y="81.349083" />
      <rect
         style="opacity:1;fill:#000000;stroke:none;stroke-width:1.02926;stroke-miterlimit:4;stroke-dasharray:none"
         id="rect3955"
         width="7.5912838"
         height="0.92604166"
         x="375.33127"
         y="81.349083" />
    </g>
    <g
       id="g4066"
       transform="matrix(1,-0.12986691,0,1,-143.89415,228.47591)"
       style="opacity:1">
      <path
         id="path4000"
         style="color:#000000;fill:#e2ded5;fill-opacity:1;stroke-width:1;-inkscape-stroke:none"
         d="m 363.74875,33.459616 v 0.52917 0.26564 2.38072 3.61529 h -70.91193 v 3.17604 21.68342 l 15.72668,4.1796 h -15.72668 v 3.17603 3.61736 H 281.4127 l 5.58622,12.51913 -5.58622,12.523764 h 35.44538 v -3.178104 -3.61526 h 70.91248 v -24.85742 l -15.73652,-4.18164 h 15.73652 v -6.79082 h 11.42357 l -5.5857,-12.5217 5.5857,-12.52122 z" />
      <path
         style="color:#000000;fill:#000000;stroke-width:4.7625;-inkscape-stroke:none"
         d="m 313.68225,97.949736 h -27.37582 l 4.17052,-9.34628 -4.17052,-9.34628 h 27.37582 z"
         id="path4002" />
      <path
         id="path4004"
         style="color:#000000;fill:#000000;stroke-width:1;-inkscape-stroke:none"
         d="m 316.06386,100.33141 v -2.382804 -21.0721 h -33.42794 l 5.23276,11.72642 -5.23276,11.728484 z" />
      <path
         style="color:#000000;fill:#e2ded5;fill-opacity:1;stroke-width:0.529167;-inkscape-stroke:none"
         d="m 313.68226,97.949726 h -27.37582 l 4.17052,-9.34628 -4.17052,-9.34628 h 27.37582 z"
         id="path4006"
         sodipodi:nodetypes="cccccc" />
      <path
         id="path4008"
         style="fill:#000000;fill-opacity:1;stroke:none;stroke-width:0.264583px;stroke-linecap:butt;stroke-linejoin:miter;stroke-opacity:1"
         d="m 314.26891,98.088226 0.28627,-6.26028 -20.92457,1.71162 z"
         sodipodi:nodetypes="cccc" />
      <path
         style="color:#000000;fill:#000000;stroke-width:4.7625;-inkscape-stroke:none"
         d="m 366.92457,36.635646 h 27.37582 l -4.17052,9.34628 4.17052,9.34628 h -27.37582 z"
         id="path4010" />
      <path
         id="path4012"
         style="color:#000000;fill:#000000;stroke-width:1;-inkscape-stroke:none"
         d="m 364.54296,34.253976 v 2.3828 21.0721 h 33.42794 l -5.23276,-11.72642 5.23276,-11.72848 z" />
      <path
         style="color:#000000;fill:#e2ded5;fill-opacity:1;stroke-width:0.529167;-inkscape-stroke:none"
         d="m 366.92457,36.635646 h 27.37582 l -4.17052,9.34627 4.17052,9.34628 h -27.37582 z"
         id="path4014"
         sodipodi:nodetypes="cccccc" />
      <path
         id="path4016"
         style="fill:#000000;stroke-width:0.529167"
         d="m 300.4438,47.093936 86.53253,22.99073 -6.81319,17.40667 -86.53253,-22.99073 z"
         sodipodi:nodetypes="ccccc" />
      <path
         id="path4018"
         style="color:#000000;fill:#000000;stroke-width:4.7625;-inkscape-stroke:none"
         d="m 293.63061,70.084666 v 2.38074 21.07416 h 93.34572 v -23.4549 z" />
      <rect
         style="fill:#e2ded5;fill-opacity:1;stroke-width:0.529167"
         id="rect4020"
         width="88.584"
         height="18.69256"
         x="296.01163"
         y="72.465828" />
      <path
         id="path4022"
         style="color:#000000;fill:#000000;stroke-width:4.7625;-inkscape-stroke:none"
         d="m 293.63061,41.045716 v 2.38073 21.07417 h 93.34572 v -23.4549 z" />
      <path
         style="color:#000000;fill:#e2ded5;fill-opacity:1;stroke-width:0.529167;-inkscape-stroke:none"
         d="m 296.01164,43.426876 h 88.58366 v 18.69256 h -88.58366 z"
         id="path4024" />
      <path
         d="m 298.89485,46.726716 2.53015,0.13946 h 2.88875 l 2.53014,-0.13946 0.0996,-0.57775 h 0.37853 l 0.0797,2.82898 h -0.37853 l -0.1793,-0.77697 -2.98836,-0.0996 -0.1793,2.64968 v 4.1837 l 0.23907,3.40673 0.8965,0.13946 -0.0199,0.37852 h -3.80517 l -0.0199,-0.37852 0.8965,-0.13946 0.23907,-3.42665 v -4.1837 l -0.19922,-2.62976 -3.00828,0.0996 -0.17931,0.77697 h -0.37852 l 0.0797,-2.82898 h 0.37853 z"
         id="path4026"
         style="font-size:19.9224px;line-height:1.25;font-family:Balthazar;-inkscape-font-specification:'Balthazar, Normal';stroke-width:0.498062" />
      <path
         d="m 311.34632,47.324386 -0.23907,3.42666 v 1.07581 h 6.1361 v -1.09574 l -0.23907,-3.40673 -0.7969,-0.0996 0.0199,-0.41837 h 3.40673 l 0.0199,0.37853 -0.59767,0.13946 -0.23907,3.42665 v 4.1837 l 0.23907,3.40673 0.59767,0.13946 -0.0199,0.37852 h -3.40673 l -0.0199,-0.41837 0.7969,-0.0996 0.23907,-3.42665 v -1.75317 h -6.1361 v 1.77309 l 0.23907,3.40673 0.7969,0.0996 -0.0199,0.41837 h -3.40673 l -0.0199,-0.37853 0.59767,-0.13945 0.23907,-3.42666 v -4.1837 l -0.23907,-3.40673 -0.59767,-0.13946 0.0199,-0.37852 h 3.40673 l 0.0199,0.41837 z"
         id="path4028"
         style="font-size:19.9224px;line-height:1.25;font-family:Balthazar;-inkscape-font-specification:'Balthazar, Normal';stroke-width:0.498062" />
      <path
         d="m 329.71473,48.360356 -2.13169,-0.19923 h -2.94852 l -0.1793,2.58991 v 0.91644 h 3.8251 l 0.15938,-0.57775 h 0.37852 l -0.11953,2.72937 h -0.37853 l -0.0996,-0.7969 h -3.76533 v 1.91255 l 0.1793,2.56999 h 2.94852 l 2.29107,-0.21915 0.33868,-0.79689 0.33868,0.0797 -0.61759,2.82898 -0.3586,-0.0199 0.0199,-0.51799 h -7.53067 l -0.0199,-0.37852 0.59767,-0.13946 0.23907,-3.42665 v -4.1837 l -0.23907,-3.40673 -0.59767,-0.13946 0.0199,-0.37853 h 7.70997 l 0.15938,-0.57775 h 0.37852 l -0.11953,2.9286 h -0.37853 z"
         id="path4030"
         style="font-size:19.9224px;line-height:1.25;font-family:Balthazar;-inkscape-font-specification:'Balthazar, Normal';stroke-width:0.498062" />
      <path
         d="m 337.86297,56.030476 -0.0996,0.91643 q 1.55395,0.89651 2.76921,0.89651 1.21527,0 1.91255,-0.49806 0.69729,-0.49806 0.69729,-1.29496 0,-0.81681 -0.45822,-1.37464 -0.45821,-0.57775 -1.1555,-0.87659 -0.69728,-0.29883 -1.5141,-0.65744 -0.7969,-0.37852 -1.49418,-0.7172 -0.69728,-0.35861 -1.1555,-1.03597 -0.45821,-0.67736 -0.45821,-1.61371 0,-1.45434 1.19534,-2.35085 1.21527,-0.91643 3.12782,-0.91643 1.17542,0 2.41061,0.37853 l 0.13945,-0.51798 h 0.37853 l -0.15938,3.36688 h -0.37853 l -0.13945,-0.85666 q -1.69341,-1.11566 -2.96844,-1.11566 -0.87659,0 -1.35472,0.39845 -0.47814,0.37853 -0.47814,1.1555 0,0.77698 0.61759,1.3348 0.6176,0.55783 1.49418,0.89651 0.89651,0.33868 1.7731,0.73713 0.89651,0.37853 1.5141,1.1555 0.61759,0.75705 0.61759,1.91255 0,1.75317 -1.29495,2.78914 -1.29496,1.01604 -3.4665,1.01604 -1.27503,0 -2.86882,-0.45822 l -0.27892,0.4383 -0.3586,-0.11954 1.07581,-3.08797 z"
         id="path4032"
         style="font-size:19.9224px;line-height:1.25;font-family:Balthazar;-inkscape-font-specification:'Balthazar, Normal';stroke-width:0.498062" />
      <path
         d="m 349.43785,47.324386 -0.23907,3.42666 v 1.07581 h 6.1361 v -1.09574 l -0.23907,-3.40673 -0.7969,-0.0996 0.0199,-0.41837 h 3.40673 l 0.0199,0.37853 -0.59768,0.13946 -0.23906,3.42665 v 4.1837 l 0.23906,3.40673 0.59768,0.13946 -0.0199,0.37852 h -3.40673 l -0.0199,-0.41837 0.7969,-0.0996 0.23907,-3.42665 v -1.75317 h -6.1361 v 1.77309 l 0.23907,3.40673 0.79689,0.0996 -0.0199,0.41837 h -3.40673 l -0.0199,-0.37852 0.59767,-0.13946 0.23907,-3.42665 v -4.1837 l -0.23907,-3.40673 -0.59767,-0.13946 0.0199,-0.37853 h 3.40673 l 0.0199,0.41837 z"
         id="path4034"
         style="font-size:19.9224px;line-height:1.25;font-family:Balthazar;-inkscape-font-specification:'Balthazar, Normal';stroke-width:0.498062" />
      <path
         d="m 365.45542,47.822446 q -1.91255,0 -2.76922,1.23519 -0.83674,1.21527 -0.83674,3.72549 0,2.4903 1.07581,3.78526 1.09573,1.27503 3.00828,1.27503 1.91255,0 2.7493,-1.19534 0.85666,-1.21527 0.85666,-3.74542 0,-2.55006 -1.07581,-3.80517 -1.07581,-1.27504 -3.00828,-1.27504 z m 0.0797,11.33585 q -2.64968,0 -4.12394,-1.63364 -1.47426,-1.65356 -1.47426,-4.58215 0,-2.92859 1.61372,-4.68176 1.61371,-1.75318 4.28331,-1.75318 2.6696,0 4.14386,1.63364 1.47426,1.63364 1.47426,4.56223 0,2.92859 -1.63364,4.70169 -1.61371,1.75317 -4.28331,1.75317 z"
         id="path4036"
         style="font-size:19.9224px;line-height:1.25;font-family:Balthazar;-inkscape-font-specification:'Balthazar, Normal';stroke-width:0.498062" />
      <path
         d="m 374.24119,58.341476 0.23906,-3.42665 v -4.18371 l -0.23906,-3.38681 -0.59768,-0.13945 0.0199,-0.37853 q 3.62587,-0.0797 4.20362,-0.0797 4.40285,0 4.40285,3.66572 0,1.87271 -1.35472,2.86883 -1.35472,0.9762 -4.04425,0.9762 h -0.79689 v 0.67736 l 0.23906,3.40673 0.7969,0.0996 -0.0199,0.41837 h -3.42665 l -0.0199,-0.37853 z m 3.46649,-10.39949 q -0.77697,0 -1.45433,0.21914 l -0.1793,2.58991 v 2.1317 q 0.29883,0.0797 1.27503,0.0797 1.65356,0 2.35084,-0.55783 0.71721,-0.57774 0.71721,-1.89262 0,-2.56999 -2.70945,-2.56999 z"
         id="path4038"
         style="font-size:19.9224px;line-height:1.25;font-family:Balthazar;-inkscape-font-specification:'Balthazar, Normal';stroke-width:0.498062" />
      <path
         d="m 310.56771,78.582116 q -1.08107,0 -1.66115,0.85694 -0.58008,0.84376 -0.58008,2.4258 0,1.56887 0.60645,2.46536 0.61963,0.8833 1.66114,0.8833 1.0547,0 2.24123,-0.68555 l 0.22413,-0.52735 0.2373,0.0527 -0.46143,2.09621 h -0.26367 l 0.0132,-0.3296 q -0.88331,0.26368 -1.97756,0.26368 -1.67433,0 -2.61037,-1.06788 -0.93604,-1.06788 -0.93604,-3.01907 0,-1.96437 1.01514,-3.12453 1.01515,-1.16017 2.7554,-1.16017 0.87012,0 1.84571,0.32959 l 0.0923,-0.32959 h 0.25049 l -0.0923,2.03029 h -0.25049 l -0.0923,-0.55372 q -1.16016,-0.60645 -2.0171,-0.60645 z"
         id="path4040"
         style="font-size:13.1837px;line-height:1.25;font-family:Balthazar;-inkscape-font-specification:'Balthazar, Normal';stroke-width:0.329593" />
      <path
         d="m 319.20301,83.895146 -0.25049,-0.69873 h -3.00588 l -0.26368,0.69873 -0.39551,1.64797 0.5669,0.0659 -0.0132,0.27685 h -2.20168 l -0.0132,-0.25049 0.39551,-0.0923 2.97952,-7.29059 -0.50098,-0.0923 0.0132,-0.2505 h 2.16212 l 0.0132,0.2505 -0.50098,0.0923 2.7554,7.29059 0.39551,0.0923 -0.0132,0.25049 h -2.3467 l -0.0132,-0.27685 0.5669,-0.0659 z m -1.68751,-4.69339 -1.22609,3.11135 h 2.3467 z"
         id="path4042"
         style="font-size:13.1837px;line-height:1.25;font-family:Balthazar;-inkscape-font-specification:'Balthazar, Normal';stroke-width:0.329593" />
      <path
         d="m 322.39345,85.543116 0.1582,-2.2676 v -2.76858 l -0.17139,-2.25441 -0.38232,-0.0923 0.0132,-0.2505 h 2.18849 l 0.0132,0.27686 -0.58008,0.0659 h -0.0132 l 4.15286,5.70854 v -3.45413 l -0.17138,-2.25441 -0.52735,-0.0659 0.0132,-0.27686 h 2.17531 l 0.0132,0.2505 -0.39551,0.0923 -0.15821,2.2676 v 2.41261 l 0.15821,2.61038 0.39551,0.0923 -0.0132,0.25049 h -2.13576 l -0.0132,-0.27685 0.59327,-0.0659 -4.2056,-5.76128 v 3.50686 l 0.1582,2.25442 0.52735,0.0659 -0.0132,0.27685 h -2.16213 l -0.0132,-0.25049 z"
         id="path4044"
         style="font-size:13.1837px;line-height:1.25;font-family:Balthazar;-inkscape-font-specification:'Balthazar, Normal';stroke-width:0.329593" />
      <path
         d="m 331.87251,78.252526 0.4878,1.41066 1.10743,2.06984 1.1338,-2.04348 0.4878,-1.43702 -0.55372,-0.0659 0.0132,-0.27686 h 2.1885 l 0.0132,0.2505 -0.39551,0.0923 -2.43899,4.27152 v 0.76465 l 0.15821,2.25442 0.59326,0.0923 -0.0132,0.25049 h -2.51808 l -0.0132,-0.25049 0.59326,-0.0923 0.15821,-2.2676 v -0.58008 l -2.47854,-4.44291 -0.39551,-0.0923 0.0132,-0.2505 h 2.35988 l 0.0132,0.27686 z"
         id="path4046"
         style="font-size:13.1837px;line-height:1.25;font-family:Balthazar;-inkscape-font-specification:'Balthazar, Normal';stroke-width:0.329593" />
      <path
         d="m 340.99562,78.582116 q -1.26564,0 -1.83253,0.81739 -0.55372,0.80421 -0.55372,2.46535 0,1.64797 0.71192,2.50491 0.7251,0.84375 1.99074,0.84375 1.26563,0 1.81935,-0.79102 0.5669,-0.8042 0.5669,-2.47853 0,-1.68752 -0.71192,-2.51809 -0.71192,-0.84376 -1.99074,-0.84376 z m 0.0527,7.50153 q -1.75343,0 -2.72902,-1.08106 -0.9756,-1.09425 -0.9756,-3.03226 0,-1.938 1.06788,-3.09816 1.06788,-1.16017 2.8345,-1.16017 1.76661,0 2.74221,1.08106 0.97559,1.08107 0.97559,3.01907 0,1.938 -1.08106,3.11135 -1.06788,1.16017 -2.8345,1.16017 z"
         id="path4048"
         style="font-size:13.1837px;line-height:1.25;font-family:Balthazar;-inkscape-font-specification:'Balthazar, Normal';stroke-width:0.329593" />
      <path
         d="m 346.80963,85.543116 0.1582,-2.2676 v -2.76858 l -0.17139,-2.25441 -0.38233,-0.0923 0.0132,-0.2505 h 2.18849 l 0.0132,0.27686 -0.58009,0.0659 h -0.0132 l 4.15286,5.70854 v -3.45413 l -0.17138,-2.25441 -0.52735,-0.0659 0.0132,-0.27686 h 2.17531 l 0.0132,0.2505 -0.39551,0.0923 -0.15821,2.2676 v 2.41261 l 0.15821,2.61038 0.39551,0.0923 -0.0132,0.25049 h -2.13576 l -0.0132,-0.27685 0.59327,-0.0659 -4.2056,-5.76128 v 3.50686 l 0.1582,2.25442 0.52735,0.0659 -0.0132,0.27685 h -2.16212 l -0.0132,-0.25049 z"
         id="path4050"
         style="font-size:13.1837px;line-height:1.25;font-family:Balthazar;-inkscape-font-specification:'Balthazar, Normal';stroke-width:0.329593" />
      <path
         d="m 355.07579,85.134416 q 0.29004,-0.71192 0.85694,-0.89649 0.92286,0.36914 0.92286,1.17335 0,0.79102 -1.31837,2.45217 l -0.30322,-0.21094 q 0.50098,-0.81739 0.61963,-1.80617 -0.32959,-0.10547 -0.50098,-0.25049 -0.15821,-0.14502 -0.27686,-0.46143 z"
         id="path4052"
         style="font-size:13.1837px;line-height:1.25;font-family:Balthazar;-inkscape-font-specification:'Balthazar, Normal';stroke-width:0.329593" />
      <path
         d="m 360.32288,77.857016 1.67433,0.0923 h 1.91163 l 1.67433,-0.0923 0.0659,-0.38233 h 0.25049 l 0.0527,1.87209 h -0.25049 l -0.11865,-0.51417 -1.97755,-0.0659 -0.11866,1.75343 v 2.76857 l 0.15821,2.25442 0.59326,0.0923 -0.0132,0.25049 h -2.51809 l -0.0132,-0.25049 0.59327,-0.0923 0.1582,-2.2676 v -2.76858 l -0.13184,-1.74024 -1.99073,0.0659 -0.11866,0.51417 h -0.25049 l 0.0527,-1.87209 h 0.25049 z"
         id="path4054"
         style="font-size:13.1837px;line-height:1.25;font-family:Balthazar;-inkscape-font-specification:'Balthazar, Normal';stroke-width:0.329593" />
      <path
         d="m 371.54218,80.005956 -1.2129,1.74025 1.41066,2.04348 1.35792,1.75343 0.43506,0.0923 -0.0132,0.25049 h -2.76858 l -0.0132,-0.27685 0.58008,-0.0527 -0.646,-1.41066 -1.08107,-1.58204 -1.02833,1.46339 -0.67236,1.51613 0.58008,0.0659 -0.0132,0.27685 h -2.49172 l -0.0132,-0.25049 0.43506,-0.0923 1.38429,-1.75343 1.31837,-1.95119 -1.23926,-1.83254 -1.34474,-1.75343 -0.38233,-0.0923 0.0132,-0.2505 h 2.7554 l 0.0132,0.27686 -0.646,0.0659 0.67237,1.42384 0.92286,1.35792 0.87012,-1.26563 0.67237,-1.51613 -0.52735,-0.0659 0.0132,-0.27686 h 2.45216 l 0.0132,0.2505 -0.39551,0.0923 z"
         id="path4056"
         style="font-size:13.1837px;line-height:1.25;font-family:Balthazar;-inkscape-font-specification:'Balthazar, Normal';stroke-width:0.329593" />
      <path
         id="path4058"
         style="color:#000000;fill:none;fill-opacity:1;stroke-width:4.7625;-inkscape-stroke:none"
         d="m 293.63061,41.045716 v 2.38073 21.07417 h 93.34572 v -23.4549 z" />
      <path
         id="path4060"
         style="fill:#000000;fill-opacity:1;stroke:none;stroke-width:0.264583px;stroke-linecap:butt;stroke-linejoin:miter;stroke-opacity:1"
         d="m 366.21062,36.477426 -0.9329,5.8191 21.6985,-1.25072 z"
         sodipodi:nodetypes="cccc" />
      <rect
         style="opacity:1;fill:#000000;stroke:none;stroke-width:1.02926;stroke-miterlimit:4;stroke-dasharray:none"
         id="rect4062"
         width="7.5912838"
         height="0.92604166"
         x="297.55048"
         y="81.349083" />
      <rect
         style="opacity:1;fill:#000000;stroke:none;stroke-width:1.02926;stroke-miterlimit:4;stroke-dasharray:none"
         id="rect4064"
         width="7.5912838"
         height="0.92604166"
         x="375.33127"
         y="81.349083" />
    </g>
  </g>
</svg>
