<?xml version="1.0" standalone="no"?>
<!DOCTYPE svg PUBLIC "-//W3C//DTD SVG 20010904//EN"
 "http://www.w3.org/TR/2001/REC-SVG-20010904/DTD/svg10.dtd">
<svg version="1.0" xmlns="http://www.w3.org/2000/svg"
 width="700.000000pt" height="700.000000pt" viewBox="0 0 700.000000 700.000000"
 preserveAspectRatio="xMidYMid meet">
<metadata>
Created by potrace 1.14, written by Peter Selinger 2001-2017
</metadata>
<g transform="translate(0.000000,700.000000) scale(0.100000,-0.100000)"
fill="#000000" stroke="none">
<path d="M3315 6883 c-1422 -75 -2665 -1060 -3065 -2429 -92 -316 -132 -597
-133 -944 -2 -561 112 -1041 364 -1541 173 -343 375 -615 665 -899 160 -156
295 -267 462 -378 1240 -829 2842 -762 4012 167 123 98 426 400 522 521 569
719 823 1601 722 2510 -74 659 -356 1304 -795 1815 -95 111 -328 340 -429 421
-656 531 -1487 802 -2325 757z m-1092 -1279 c116 -29 242 -101 319 -181 49
-51 102 -141 118 -200 103 -392 240 -706 432 -990 59 -87 107 -137 346 -365
447 -425 525 -496 1222 -1123 852 -767 956 -867 985 -955 36 -107 2 -233 -86
-321 -110 -110 -279 -122 -412 -30 -47 33 -623 610 -1227 1231 -612 629 -1097
1110 -1173 1164 -170 121 -418 175 -755 163 -139 -5 -163 -4 -158 9 3 7 87
214 186 460 l181 446 -26 131 c-15 73 -29 142 -32 153 -4 18 -50 40 -244 119
l-240 98 17 26 c99 156 318 222 547 165z m-658 -1014 c120 -49 223 -86 229
-83 9 6 141 103 184 137 11 8 11 4 0 -24 -8 -19 -63 -160 -123 -312 -59 -153
-113 -278 -119 -278 -23 0 -192 158 -247 231 -92 121 -135 224 -146 347 -3 39
-4 72 -1 72 3 0 103 -40 223 -90z"/>
<path d="M2340 4590 c-7 -16 -10 -36 -7 -43 5 -13 365 -153 371 -145 2 1 8 13
15 25 26 51 22 55 -171 126 -101 37 -186 67 -189 67 -4 0 -12 -13 -19 -30z"/>
<path d="M2295 4468 c-10 -25 -11 -36 -2 -44 13 -12 341 -134 361 -134 13 0
36 41 36 64 0 8 -8 17 -17 21 -116 46 -337 125 -349 125 -8 0 -21 -15 -29 -32z"/>
<path d="M2255 4353 c-9 -20 -12 -40 -8 -44 5 -4 89 -38 187 -74 194 -72 204
-73 209 -10 2 29 0 30 -178 96 -99 38 -183 68 -187 68 -4 1 -15 -16 -23 -36z"/>
<path d="M5239 1887 c-66 -35 -102 -93 -107 -170 -4 -77 24 -138 86 -182 57
-40 149 -47 209 -16 88 44 135 143 113 233 -33 131 -182 198 -301 135z"/>
</g>
</svg>
