<?xml version="1.0" encoding="UTF-8" standalone="no"?>
<!-- Created with Inkscape (http://www.inkscape.org/) -->

<svg
   width="22.489584mm"
   height="22.489584mm"
   viewBox="0 0 22.489584 22.489584"
   version="1.1"
   id="svg1346"
   xmlns="http://www.w3.org/2000/svg"
   xmlns:svg="http://www.w3.org/2000/svg">
  <defs
     id="defs1343" />
  <g
     id="layer1"
     transform="translate(118.33558,-85.059468)">
    <g
       id="g1797"
       transform="matrix(0.20889784,0,0,0.20889784,-92.292616,68.613646)">
      <circle
         style="fill:#000000;fill-opacity:1;stroke:none;stroke-width:5.21222;stroke-miterlimit:4;stroke-dasharray:none;stroke-opacity:1"
         id="path34831"
         cx="-70.839279"
         cy="132.55577"
         r="47.496304" />
      <path
         style="fill:#e2ded5;fill-opacity:1;stroke-width:0.201156"
         d="m -78.934547,147.91594 -0.05155,-15.33815 -4.073408,-0.0545 -4.073409,-0.0545 v -5.72878 -5.72878 h 4.123697 4.123697 v -3.68921 c 0,-4.27173 0.295706,-5.84417 1.546727,-8.22486 1.419112,-2.70058 4.137595,-5.00245 7.060202,-5.9782 2.821812,-0.94211 3.74109,-1.05017 9.849128,-1.15783 l 5.883818,-0.10372 v 5.75495 5.75495 l -4.274568,0.009 c -4.624232,0.01 -5.916129,0.15527 -6.324488,0.71374 -0.191566,0.26197 -0.263366,1.2546 -0.263366,3.64079 v 3.28063 h 5.426178 5.426185 l -0.09466,0.55318 c -0.05208,0.30424 -0.324538,2.63514 -0.605497,5.17977 -0.28096,2.54462 -0.559791,4.87405 -0.619624,5.1765 l -0.108788,0.54992 -5.365652,0.0535 -5.365653,0.0535 -0.05155,15.33814 -0.05154,15.33815 h -6.032168 -6.032166 z"
         id="path1555" />
    </g>
  </g>
</svg>
