<?xml version="1.0" encoding="UTF-8" standalone="no"?>
<!-- Created with Inkscape (http://www.inkscape.org/) -->

<svg
   width="82.020836mm"
   height="82.020836mm"
   viewBox="0 0 82.020836 82.020836"
   version="1.1"
   id="svg4493"
   xmlns="http://www.w3.org/2000/svg"
   xmlns:svg="http://www.w3.org/2000/svg">
  <defs
     id="defs4490" />
  <g
     id="layer1"
     transform="translate(-59.2188,-100.53465)">
    <g
       id="g22365"
       transform="matrix(0.83559134,0,0,0.83559134,-146.49389,94.782265)"
       style="display:inline">
      <circle
         style="fill:#000000;fill-opacity:1;stroke:none;stroke-width:5.21222;stroke-miterlimit:4;stroke-dasharray:none;stroke-opacity:1"
         id="circle22341"
         cx="24.865414"
         cy="-299.49399"
         r="47.496304"
         transform="rotate(95.986199)" />
      <path
         id="path20397"
         style="color:#000000;fill:#e2ded5;fill-opacity:1;stroke-width:0.171277;-inkscape-stroke:none"
         d="M 321.36634,56.025579 308.7737,68.618216 c 0.0309,0.432412 0.0521,0.867355 0.0521,1.307186 0,1.938804 -0.30779,3.809596 -0.8726,5.568921 l 18.80588,-18.80587 c -0.51247,0.08493 -1.03752,0.13118 -1.57312,0.131182 -1.35516,1.2e-5 -2.64661,-0.284347 -3.81964,-0.794056 z" />
      <path
         style="color:#000000;fill:#e2ded5;fill-opacity:1;stroke-width:0.171277;-inkscape-stroke:none"
         d="m 266.5893,45.043186 5.77435,21.549821 c 0.44639,-2.40419 1.36469,-4.647905 2.65578,-6.632307 l -3.0893,-11.529433 c -2.06266,-0.659857 -3.88973,-1.844415 -5.34083,-3.388081 z"
         id="path20395" />
      <path
         style="color:#000000;fill:#e2ded5;fill-opacity:1;stroke-width:0.171277;-inkscape-stroke:none"
         d="m 285.52493,28.544342 c 1.1952,1.475924 2.0627,3.225357 2.49425,5.137181 l 29.16662,8.104765 c 0.9752,-1.442256 2.33011,-2.608331 3.9171,-3.355597 z"
         id="path21571" />
      <path
         id="path17322"
         style="color:#000000;fill:#e2ded5;fill-opacity:1;stroke-width:4.10539;-inkscape-stroke:none"
         d="m 290.4392,53.59221 c -8.97988,0 -16.3341,7.353168 -16.3341,16.333214 0,8.980059 7.35406,16.334108 16.3341,16.334108 8.98005,0 16.33394,-7.354083 16.33394,-16.334108 0,-8.980015 -7.35403,-16.333214 -16.33394,-16.333214 z m 0,2.052697 c 7.86303,0 14.28124,6.417503 14.28124,14.280517 0,7.86302 -6.41821,14.281415 -14.28124,14.281415 -7.86301,0 -14.28141,-6.418395 -14.28141,-14.281415 0,-7.863014 6.4184,-14.280517 14.28141,-14.280517 z" />
      <path
         id="circle17109"
         style="fill:#e2ded5;fill-opacity:1;stroke:none;stroke-width:4.10539;stroke-miterlimit:4;stroke-dasharray:none;stroke-opacity:1"
         d="m 290.43903,57.697244 a 12.228597,12.228597 0 0 0 -12.22872,12.228539 12.228597,12.228597 0 0 0 12.22872,12.228539 12.228597,12.228597 0 0 0 12.22853,-12.228539 12.228597,12.228597 0 0 0 -12.22853,-12.228539 z m 0,8.02302 a 4.2055948,4.2055948 0 0 1 4.20552,4.205519 4.2055948,4.2055948 0 0 1 -4.20552,4.205694 4.2055948,4.2055948 0 0 1 -4.2057,-4.205694 4.2055948,4.2055948 0 0 1 4.2057,-4.205519 z" />
      <path
         id="path17532"
         style="fill:#e2ded5;fill-opacity:1;stroke:none;stroke-width:3.61764;stroke-miterlimit:4;stroke-dasharray:none;stroke-opacity:1"
         d="m 275.74474,25.667917 a 10.775809,10.775809 0 0 0 -10.77591,10.775756 10.775809,10.775809 0 0 0 10.77591,10.77576 10.775809,10.775809 0 0 0 10.77575,-10.77576 10.775809,10.775809 0 0 0 -10.77575,-10.775756 z m 0,7.069867 a 3.7059593,3.7059593 0 0 1 3.70589,3.705889 3.7059593,3.7059593 0 0 1 -3.70589,3.706048 3.7059593,3.7059593 0 0 1 -3.70605,-3.706048 3.7059593,3.7059593 0 0 1 3.70605,-3.705889 z" />
      <path
         id="path17534"
         style="fill:#e2ded5;fill-opacity:1;stroke:none;stroke-width:2.63292;stroke-miterlimit:4;stroke-dasharray:none;stroke-opacity:1"
         d="m 325.18626,39.325943 a 7.8426126,7.8426126 0 0 0 -7.84269,7.842577 7.8426126,7.8426126 0 0 0 7.84269,7.842574 7.8426126,7.8426126 0 0 0 7.84257,-7.842574 7.8426126,7.8426126 0 0 0 -7.84257,-7.842577 z m 0,5.145434 a 2.6971901,2.6971901 0 0 1 2.69714,2.697143 2.6971901,2.6971901 0 0 1 -2.69714,2.697254 2.6971901,2.6971901 0 0 1 -2.69726,-2.697254 2.6971901,2.6971901 0 0 1 2.69726,-2.697143 z" />
      <path
         id="path39835"
         style="color:#000000;fill:#e2ded5;fill-opacity:1;stroke-width:4.10539;-inkscape-stroke:none"
         d="m 290.4392,53.59221 c -8.97988,0 -16.3341,7.353168 -16.3341,16.333214 0,8.980059 7.35406,16.334108 16.3341,16.334108 8.98005,0 16.33394,-7.354083 16.33394,-16.334108 0,-8.980015 -7.35403,-16.333214 -16.33394,-16.333214 z m 0,2.052697 c 7.86303,0 14.28124,6.417503 14.28124,14.280517 0,7.86302 -6.41821,14.281415 -14.28124,14.281415 -7.86301,0 -14.28141,-6.418395 -14.28141,-14.281415 0,-7.863014 6.4184,-14.280517 14.28141,-14.280517 z" />
    </g>
  </g>
</svg>
