<?xml version="1.0" encoding="UTF-8" standalone="no"?>
<!-- Created with Inkscape (http://www.inkscape.org/) -->

<svg
   width="42.333332mm"
   height="42.333332mm"
   viewBox="0 0 42.333332 42.333332"
   version="1.1"
   id="svg2892"
   xmlns="http://www.w3.org/2000/svg"
   xmlns:svg="http://www.w3.org/2000/svg">
  <defs
     id="defs2889" />
  <g
     id="layer1"
     transform="translate(-33.787907,-22.533169)">
    <g
       id="g38840"
       transform="matrix(0.41779567,0,0,0.41779567,10.074459,21.634056)">
      <circle
         style="fill:#000000;fill-opacity:1;stroke:none;stroke-width:5.21222;stroke-miterlimit:4;stroke-dasharray:none;stroke-opacity:1"
         id="path34831"
         cx="107.4212"
         cy="52.814762"
         r="47.496304" />
      <path
         id="path33653"
         style="color:#000000;fill:#e2ded5;fill-opacity:1;stroke-width:5.29167;-inkscape-stroke:none"
         d="m 107.41992,17.806826 c -12.389302,0 -22.488035,10.099246 -22.488035,22.488551 0,3.538297 1.385994,7.648705 3.300574,12.282969 1.914591,4.634267 4.427884,9.66969 6.933944,14.351579 5.012117,9.363777 10.013337,17.326077 10.013337,17.326077 l 2.24018,3.56671 2.24224,-3.56671 c 0,0 5.00173,-7.9623 10.01386,-17.326077 2.50607,-4.681889 5.01884,-9.717312 6.93342,-14.351579 1.91458,-4.634264 3.30109,-8.744672 3.30109,-12.282969 0,-12.389305 -10.1013,-22.488551 -22.49061,-22.488551 z" />
      <path
         id="path33274"
         style="fill:#000000;stroke-width:4.39927"
         d="m 127.26485,40.295663 c 0,10.959401 -19.84375,42.552309 -19.84375,42.552309 0,0 -19.843742,-31.592908 -19.843742,-42.552309 0,-10.959401 8.88435,-19.84375 19.843742,-19.84375 10.9594,0 19.84375,8.884349 19.84375,19.84375 z" />
      <circle
         style="fill:#e2ded5;fill-opacity:1;stroke:none;stroke-width:2.22782;stroke-miterlimit:4;stroke-dasharray:none;stroke-opacity:1"
         id="path33531"
         cx="107.42112"
         cy="39.544407"
         r="7.3249459" />
    </g>
  </g>
</svg>
