<?xml version="1.0" encoding="UTF-8" standalone="no"?>
<!-- Created with Inkscape (http://www.inkscape.org/) -->

<svg
   width="82.020836mm"
   height="82.020836mm"
   viewBox="0 0 82.020836 82.020836"
   version="1.1"
   id="svg4776"
   xmlns="http://www.w3.org/2000/svg"
   xmlns:svg="http://www.w3.org/2000/svg">
  <defs
     id="defs4773" />
  <g
     id="layer1"
     transform="translate(-67.961511,-101.97533)">
    <g
       id="g856"
       transform="matrix(0.83559134,0,0,0.83559134,-194.43401,74.765337)"
       style="display:inline">
      <circle
         style="fill:#000000;fill-opacity:1;stroke:none;stroke-width:5.21222;stroke-miterlimit:4;stroke-dasharray:none;stroke-opacity:1"
         id="circle39808"
         cx="43.330433"
         cy="-369.63776"
         r="47.496304"
         transform="rotate(95.986199)" />
      <path
         id="rect36355"
         style="fill:#e2ded5;fill-opacity:1;stroke:none;stroke-width:4.20519;stroke-miterlimit:4;stroke-dasharray:none;stroke-opacity:1"
         d="m 386.6105,54.212152 c -3.33129,-0.08785 -28.23866,16.579168 -30.98906,17.187631 -1.59114,0.352009 -3.64949,-2.884522 -3.64949,-2.884522 -10e-6,0 -1.80736,-2.154585 -2.94531,-1.894453 -3.4547,0.789732 -10.91553,-1.802693 -9.93472,-0.517028 2.06758,2.710283 6.59811,3.592669 8.29089,2.259194 0.75243,-0.592716 0.87603,3.476185 -0.16411,3.715459 -1.82092,0.418888 -10.14469,0.352569 -14.07633,2.258572 -0.40689,0.159989 -0.77766,0.390796 -1.09568,0.679065 -0.33901,0.278042 -0.60132,0.586921 -0.76745,0.931355 -0.0329,0.06816 -0.0631,0.154048 -0.0917,0.249385 -0.20454,0.452439 -0.31929,0.954818 -0.31929,1.485312 v 15.784893 c 0,1.991673 1.60344,3.595124 3.59512,3.595124 h 5.58356 c 1.99167,0 3.59513,-1.603451 3.59513,-3.595124 V 82.518567 c 0.0446,-2.021272 0.0795,-4.086683 0.11888,-6.134616 0.0198,-1.029925 1.20506,-1.841011 2.17081,-2.19944 1.97005,-0.731171 6.28337,0.51101 6.28337,0.51101 l 8.26912,-0.924093 25.27065,-17.926241 c 1.0707,-0.759515 4.87073,1.276392 7.32282,1.150863 1.76521,-0.09036 -4.50665,-2.732198 -6.4672,-2.783898 z m -49.89729,21.701039 h 1.09796 c 1.99167,0 3.59513,1.603453 3.59513,3.595124 v 11.803866 c 0,1.991673 -1.60346,3.595124 -3.59513,3.595124 h -1.09796 c -1.99167,0 -3.59491,-1.603451 -3.59491,-3.595124 V 79.508315 c 0,-1.991671 1.60324,-3.595124 3.59491,-3.595124 z" />
      <path
         id="path22840"
         style="fill:#e2ded5;fill-opacity:1;stroke:none;stroke-width:0.106227px;stroke-linecap:butt;stroke-linejoin:miter;stroke-opacity:1"
         d="m 350.99786,77.705151 c -2.40134,1.234116 -4.92954,1.72633 -4.94704,3.081417 l -0.32428,25.123542 c -0.0194,1.50491 4.09472,2.69902 8.32535,3.05528 10e-4,6e-5 10e-4,0 0.002,0 0.006,0 0.012,0.001 0.0181,0.002 0.79913,0.0821 1.66572,0.11574 2.56003,0.10601 10e-4,0 0.002,0 0.004,0 0.74158,-0.002 1.45975,-0.0341 2.1316,-0.10063 4.26065,-0.34721 8.43079,-1.54701 8.41124,-3.06211 l -0.32429,-25.123339 c -0.0175,-1.355088 -2.5457,-1.84751 -4.94702,-3.081625 h -3.13847 v -4.24e-4 z" />
      <path
         id="path23519"
         style="fill:#e2ded5;fill-opacity:1;stroke:none;stroke-width:0.106227px;stroke-linecap:butt;stroke-linejoin:miter;stroke-opacity:1"
         d="m 352.42279,73.588229 c -1.06742,0 -1.00135,2.063343 -1.28862,3.015854 h 3.58434 v 0.0064 h 7.08692 c -0.28728,-0.952511 -0.22121,-3.015855 -1.28863,-3.015855 h -2.31314 v -0.0064 z" />
      <path
         id="path39329"
         style="fill:#e2ded5;fill-opacity:1;stroke-width:2.92339"
         d="m 395.33826,66.602931 c 0,1.229438 -0.99665,2.226092 -2.22609,2.226092 -1.22944,0 -2.2261,-0.996654 -2.2261,-2.226092 0,-1.229438 0.99666,-6.378923 2.2261,-6.378923 1.22944,0 2.22609,5.149485 2.22609,6.378923 z" />
    </g>
  </g>
</svg>
