<?xml version="1.0" encoding="UTF-8" standalone="no"?>
<!-- Created with Inkscape (http://www.inkscape.org/) -->

<svg
   width="82.020836mm"
   height="82.020836mm"
   viewBox="0 0 82.020836 82.020836"
   version="1.1"
   id="svg4934"
   xmlns="http://www.w3.org/2000/svg"
   xmlns:svg="http://www.w3.org/2000/svg">
  <defs
     id="defs4931" />
  <g
     id="layer1"
     transform="translate(-29.411065,-91.937381)">
    <g
       id="g16169"
       transform="matrix(0.83559134,0,0,0.83559134,-17.998167,-0.39932256)"
       style="display:inline">
      <circle
         style="fill:#000000;fill-opacity:1;stroke:none;stroke-width:5.21222;stroke-miterlimit:4;stroke-dasharray:none;stroke-opacity:1"
         id="circle16099"
         cx="147.67841"
         cy="-121.8827"
         r="47.496304"
         transform="rotate(95.986199)" />
      <path
         id="path13067"
         style="fill:#e2ded5;fill-opacity:1;stroke:none;stroke-width:0.257286px;stroke-linecap:butt;stroke-linejoin:miter;stroke-opacity:1"
         d="m 102.28445,139.04227 c 0.18578,18.95417 -1.65286,29.05991 -4.051256,36.71804 h 7.998486 v 0.003 h 7.16884 c -2.39839,-7.65814 -4.23655,-17.76387 -4.05077,-36.71805 h -1.49747 v -0.003 z" />
      <path
         id="path14911"
         style="display:inline;fill:#e2ded5;fill-opacity:1;stroke:none;stroke-width:0.257286px;stroke-linecap:butt;stroke-linejoin:miter;stroke-opacity:1"
         d="m 104.50805,175.20453 -11.151216,0.001 0.02007,9.12059 H 97.9779 a 7.867358,7.867358 0 0 1 7.83868,-7.21456 7.867358,7.867358 0 0 1 7.83918,7.21456 h 4.60151 l 0.0206,-9.12159 h -11.15076 z m -11.129116,10.07989 0.01698,7.87235 c 4.005379,-0.27013 7.114086,2.96903 11.111026,3.59798 0.15414,0.0242 0.30949,0.0447 0.46634,0.0608 0.0297,0.003 0.059,0.005 0.0884,0.008 0.13011,0.0121 0.26135,0.0217 0.39347,0.0276 0.03,0.001 0.06,0.002 0.09,0.003 0.13337,0.005 0.26796,0.006 0.40352,0.004 0.0175,-2.6e-4 0.0351,-0.001 0.0527,-0.002 0.14333,-0.003 0.28777,-0.01 0.43368,-0.0211 0,-8e-5 0.003,9e-5 0.004,0 0.003,-1.7e-4 0.004,-2.5e-4 0.007,-5.1e-4 0.14722,-0.0113 0.29573,-0.0264 0.44572,-0.0462 0.0111,-0.001 0.0221,-0.004 0.0332,-0.005 0.0671,-0.009 0.13435,-0.0182 0.20199,-0.0291 v -0.003 c 3.99638,-0.62951 7.1056,-3.86558 11.11054,-3.59547 l 0.0175,-7.87135 h -4.58443 a 7.867358,7.867358 0 0 1 -7.85425,7.5618 7.867358,7.867358 0 0 1 -7.85376,-7.5618 z" />
      <path
         id="rect12454"
         style="fill:#e2ded5;fill-opacity:1;stroke-width:10.2914"
         d="m 106.06034,122.30962 c -4.11437,0.005 -8.043103,0.69096 -11.864316,1.77035 -0.9084,0.25659 -1.704341,0.75557 -1.738688,1.6804 H 119.1764 c -0.0348,-0.92359 -0.83786,-1.39708 -1.7382,-1.6804 -3.97281,-1.2501 -7.74756,-1.77507 -11.37786,-1.77035 z m -13.606529,4.40854 v 1.01407 h 26.726079 v -1.01407 z m 0,1.97186 v 11.86681 c 0,0.96498 0.818787,2.02231 1.742213,1.74222 7.533876,-2.28525 15.232676,-2.80473 23.242176,0 0.91074,0.31892 1.74169,-0.77724 1.74169,-1.74222 v -11.86681 z m 13.363289,2.72462 a 2.4559192,2.4559192 0 0 1 2.45579,2.45577 2.4559192,2.4559192 0 0 1 -2.45579,2.45628 2.4559192,2.4559192 0 0 1 -2.45626,-2.45628 2.4559192,2.4559192 0 0 1 2.45626,-2.45577 z" />
    </g>
  </g>
</svg>
