<?xml version="1.0" encoding="UTF-8" standalone="no"?>
<!-- Created with Inkscape (http://www.inkscape.org/) -->

<svg
   width="117.78143mm"
   height="82.962074mm"
   viewBox="0 0 117.78143 82.962074"
   version="1.1"
   id="svg1015"
   xmlns="http://www.w3.org/2000/svg"
   xmlns:svg="http://www.w3.org/2000/svg">
  <defs
     id="defs1012" />
  <g
     id="layer1"
     transform="translate(-45.84086,-108.0773)">
    <g
       id="g4066"
       transform="matrix(1,-0.12986691,0,1,-235.57184,126.45979)">
      <path
         id="path4000"
         style="color:#000000;fill:#e2ded5;fill-opacity:1;stroke-width:1;-inkscape-stroke:none"
         d="m 363.74875,33.459616 v 0.52917 0.26564 2.38072 3.61529 h -70.91193 v 3.17604 21.68342 l 15.72668,4.1796 h -15.72668 v 3.17603 3.61736 H 281.4127 l 5.58622,12.51913 -5.58622,12.523764 h 35.44538 v -3.178104 -3.61526 h 70.91248 v -24.85742 l -15.73652,-4.18164 h 15.73652 v -6.79082 h 11.42357 l -5.5857,-12.5217 5.5857,-12.52122 z" />
      <path
         style="color:#000000;fill:#000000;stroke-width:4.7625;-inkscape-stroke:none"
         d="m 313.68225,97.949736 h -27.37582 l 4.17052,-9.34628 -4.17052,-9.34628 h 27.37582 z"
         id="path4002" />
      <path
         id="path4004"
         style="color:#000000;fill:#000000;stroke-width:1;-inkscape-stroke:none"
         d="m 316.06386,100.33141 v -2.382804 -21.0721 h -33.42794 l 5.23276,11.72642 -5.23276,11.728484 z" />
      <path
         style="color:#000000;fill:#e2ded5;fill-opacity:1;stroke-width:0.529167;-inkscape-stroke:none"
         d="m 313.68226,97.949726 h -27.37582 l 4.17052,-9.34628 -4.17052,-9.34628 h 27.37582 z"
         id="path4006" />
      <path
         id="path4008"
         style="fill:#000000;fill-opacity:1;stroke:none;stroke-width:0.264583px;stroke-linecap:butt;stroke-linejoin:miter;stroke-opacity:1"
         d="m 314.26891,98.088226 0.28627,-6.26028 -20.92457,1.71162 z" />
      <path
         style="color:#000000;fill:#000000;stroke-width:4.7625;-inkscape-stroke:none"
         d="m 366.92457,36.635646 h 27.37582 l -4.17052,9.34628 4.17052,9.34628 h -27.37582 z"
         id="path4010" />
      <path
         id="path4012"
         style="color:#000000;fill:#000000;stroke-width:1;-inkscape-stroke:none"
         d="m 364.54296,34.253976 v 2.3828 21.0721 h 33.42794 l -5.23276,-11.72642 5.23276,-11.72848 z" />
      <path
         style="color:#000000;fill:#e2ded5;fill-opacity:1;stroke-width:0.529167;-inkscape-stroke:none"
         d="m 366.92457,36.635646 h 27.37582 l -4.17052,9.34627 4.17052,9.34628 h -27.37582 z"
         id="path4014" />
      <path
         id="path4016"
         style="fill:#000000;stroke-width:0.529167"
         d="m 300.4438,47.093936 86.53253,22.99073 -6.81319,17.40667 -86.53253,-22.99073 z" />
      <path
         id="path4018"
         style="color:#000000;fill:#000000;stroke-width:4.7625;-inkscape-stroke:none"
         d="m 293.63061,70.084666 v 2.38074 21.07416 h 93.34572 v -23.4549 z" />
      <rect
         style="fill:#e2ded5;fill-opacity:1;stroke-width:0.529167"
         id="rect4020"
         width="88.584"
         height="18.69256"
         x="296.01163"
         y="72.465828" />
      <path
         id="path4022"
         style="color:#000000;fill:#000000;stroke-width:4.7625;-inkscape-stroke:none"
         d="m 293.63061,41.045716 v 2.38073 21.07417 h 93.34572 v -23.4549 z" />
      <path
         style="color:#000000;fill:#e2ded5;fill-opacity:1;stroke-width:0.529167;-inkscape-stroke:none"
         d="m 296.01164,43.426876 h 88.58366 v 18.69256 h -88.58366 z"
         id="path4024" />
      <path
         d="m 298.89485,46.726716 2.53015,0.13946 h 2.88875 l 2.53014,-0.13946 0.0996,-0.57775 h 0.37853 l 0.0797,2.82898 h -0.37853 l -0.1793,-0.77697 -2.98836,-0.0996 -0.1793,2.64968 v 4.1837 l 0.23907,3.40673 0.8965,0.13946 -0.0199,0.37852 h -3.80517 l -0.0199,-0.37852 0.8965,-0.13946 0.23907,-3.42665 v -4.1837 l -0.19922,-2.62976 -3.00828,0.0996 -0.17931,0.77697 h -0.37852 l 0.0797,-2.82898 h 0.37853 z"
         id="path4026"
         style="font-size:19.9224px;line-height:1.25;font-family:Balthazar;-inkscape-font-specification:'Balthazar, Normal';stroke-width:0.498062" />
      <path
         d="m 311.34632,47.324386 -0.23907,3.42666 v 1.07581 h 6.1361 v -1.09574 l -0.23907,-3.40673 -0.7969,-0.0996 0.0199,-0.41837 h 3.40673 l 0.0199,0.37853 -0.59767,0.13946 -0.23907,3.42665 v 4.1837 l 0.23907,3.40673 0.59767,0.13946 -0.0199,0.37852 h -3.40673 l -0.0199,-0.41837 0.7969,-0.0996 0.23907,-3.42665 v -1.75317 h -6.1361 v 1.77309 l 0.23907,3.40673 0.7969,0.0996 -0.0199,0.41837 h -3.40673 l -0.0199,-0.37853 0.59767,-0.13945 0.23907,-3.42666 v -4.1837 l -0.23907,-3.40673 -0.59767,-0.13946 0.0199,-0.37852 h 3.40673 l 0.0199,0.41837 z"
         id="path4028"
         style="font-size:19.9224px;line-height:1.25;font-family:Balthazar;-inkscape-font-specification:'Balthazar, Normal';stroke-width:0.498062" />
      <path
         d="m 329.71473,48.360356 -2.13169,-0.19923 h -2.94852 l -0.1793,2.58991 v 0.91644 h 3.8251 l 0.15938,-0.57775 h 0.37852 l -0.11953,2.72937 h -0.37853 l -0.0996,-0.7969 h -3.76533 v 1.91255 l 0.1793,2.56999 h 2.94852 l 2.29107,-0.21915 0.33868,-0.79689 0.33868,0.0797 -0.61759,2.82898 -0.3586,-0.0199 0.0199,-0.51799 h -7.53067 l -0.0199,-0.37852 0.59767,-0.13946 0.23907,-3.42665 v -4.1837 l -0.23907,-3.40673 -0.59767,-0.13946 0.0199,-0.37853 h 7.70997 l 0.15938,-0.57775 h 0.37852 l -0.11953,2.9286 h -0.37853 z"
         id="path4030"
         style="font-size:19.9224px;line-height:1.25;font-family:Balthazar;-inkscape-font-specification:'Balthazar, Normal';stroke-width:0.498062" />
      <path
         d="m 337.86297,56.030476 -0.0996,0.91643 q 1.55395,0.89651 2.76921,0.89651 1.21527,0 1.91255,-0.49806 0.69729,-0.49806 0.69729,-1.29496 0,-0.81681 -0.45822,-1.37464 -0.45821,-0.57775 -1.1555,-0.87659 -0.69728,-0.29883 -1.5141,-0.65744 -0.7969,-0.37852 -1.49418,-0.7172 -0.69728,-0.35861 -1.1555,-1.03597 -0.45821,-0.67736 -0.45821,-1.61371 0,-1.45434 1.19534,-2.35085 1.21527,-0.91643 3.12782,-0.91643 1.17542,0 2.41061,0.37853 l 0.13945,-0.51798 h 0.37853 l -0.15938,3.36688 h -0.37853 l -0.13945,-0.85666 q -1.69341,-1.11566 -2.96844,-1.11566 -0.87659,0 -1.35472,0.39845 -0.47814,0.37853 -0.47814,1.1555 0,0.77698 0.61759,1.3348 0.6176,0.55783 1.49418,0.89651 0.89651,0.33868 1.7731,0.73713 0.89651,0.37853 1.5141,1.1555 0.61759,0.75705 0.61759,1.91255 0,1.75317 -1.29495,2.78914 -1.29496,1.01604 -3.4665,1.01604 -1.27503,0 -2.86882,-0.45822 l -0.27892,0.4383 -0.3586,-0.11954 1.07581,-3.08797 z"
         id="path4032"
         style="font-size:19.9224px;line-height:1.25;font-family:Balthazar;-inkscape-font-specification:'Balthazar, Normal';stroke-width:0.498062" />
      <path
         d="m 349.43785,47.324386 -0.23907,3.42666 v 1.07581 h 6.1361 v -1.09574 l -0.23907,-3.40673 -0.7969,-0.0996 0.0199,-0.41837 h 3.40673 l 0.0199,0.37853 -0.59768,0.13946 -0.23906,3.42665 v 4.1837 l 0.23906,3.40673 0.59768,0.13946 -0.0199,0.37852 h -3.40673 l -0.0199,-0.41837 0.7969,-0.0996 0.23907,-3.42665 v -1.75317 h -6.1361 v 1.77309 l 0.23907,3.40673 0.79689,0.0996 -0.0199,0.41837 h -3.40673 l -0.0199,-0.37852 0.59767,-0.13946 0.23907,-3.42665 v -4.1837 l -0.23907,-3.40673 -0.59767,-0.13946 0.0199,-0.37853 h 3.40673 l 0.0199,0.41837 z"
         id="path4034"
         style="font-size:19.9224px;line-height:1.25;font-family:Balthazar;-inkscape-font-specification:'Balthazar, Normal';stroke-width:0.498062" />
      <path
         d="m 365.45542,47.822446 q -1.91255,0 -2.76922,1.23519 -0.83674,1.21527 -0.83674,3.72549 0,2.4903 1.07581,3.78526 1.09573,1.27503 3.00828,1.27503 1.91255,0 2.7493,-1.19534 0.85666,-1.21527 0.85666,-3.74542 0,-2.55006 -1.07581,-3.80517 -1.07581,-1.27504 -3.00828,-1.27504 z m 0.0797,11.33585 q -2.64968,0 -4.12394,-1.63364 -1.47426,-1.65356 -1.47426,-4.58215 0,-2.92859 1.61372,-4.68176 1.61371,-1.75318 4.28331,-1.75318 2.6696,0 4.14386,1.63364 1.47426,1.63364 1.47426,4.56223 0,2.92859 -1.63364,4.70169 -1.61371,1.75317 -4.28331,1.75317 z"
         id="path4036"
         style="font-size:19.9224px;line-height:1.25;font-family:Balthazar;-inkscape-font-specification:'Balthazar, Normal';stroke-width:0.498062" />
      <path
         d="m 374.24119,58.341476 0.23906,-3.42665 v -4.18371 l -0.23906,-3.38681 -0.59768,-0.13945 0.0199,-0.37853 q 3.62587,-0.0797 4.20362,-0.0797 4.40285,0 4.40285,3.66572 0,1.87271 -1.35472,2.86883 -1.35472,0.9762 -4.04425,0.9762 h -0.79689 v 0.67736 l 0.23906,3.40673 0.7969,0.0996 -0.0199,0.41837 h -3.42665 l -0.0199,-0.37853 z m 3.46649,-10.39949 q -0.77697,0 -1.45433,0.21914 l -0.1793,2.58991 v 2.1317 q 0.29883,0.0797 1.27503,0.0797 1.65356,0 2.35084,-0.55783 0.71721,-0.57774 0.71721,-1.89262 0,-2.56999 -2.70945,-2.56999 z"
         id="path4038"
         style="font-size:19.9224px;line-height:1.25;font-family:Balthazar;-inkscape-font-specification:'Balthazar, Normal';stroke-width:0.498062" />
      <path
         d="m 310.56771,78.582116 q -1.08107,0 -1.66115,0.85694 -0.58008,0.84376 -0.58008,2.4258 0,1.56887 0.60645,2.46536 0.61963,0.8833 1.66114,0.8833 1.0547,0 2.24123,-0.68555 l 0.22413,-0.52735 0.2373,0.0527 -0.46143,2.09621 h -0.26367 l 0.0132,-0.3296 q -0.88331,0.26368 -1.97756,0.26368 -1.67433,0 -2.61037,-1.06788 -0.93604,-1.06788 -0.93604,-3.01907 0,-1.96437 1.01514,-3.12453 1.01515,-1.16017 2.7554,-1.16017 0.87012,0 1.84571,0.32959 l 0.0923,-0.32959 h 0.25049 l -0.0923,2.03029 h -0.25049 l -0.0923,-0.55372 q -1.16016,-0.60645 -2.0171,-0.60645 z"
         id="path4040"
         style="font-size:13.1837px;line-height:1.25;font-family:Balthazar;-inkscape-font-specification:'Balthazar, Normal';stroke-width:0.329593" />
      <path
         d="m 319.20301,83.895146 -0.25049,-0.69873 h -3.00588 l -0.26368,0.69873 -0.39551,1.64797 0.5669,0.0659 -0.0132,0.27685 h -2.20168 l -0.0132,-0.25049 0.39551,-0.0923 2.97952,-7.29059 -0.50098,-0.0923 0.0132,-0.2505 h 2.16212 l 0.0132,0.2505 -0.50098,0.0923 2.7554,7.29059 0.39551,0.0923 -0.0132,0.25049 h -2.3467 l -0.0132,-0.27685 0.5669,-0.0659 z m -1.68751,-4.69339 -1.22609,3.11135 h 2.3467 z"
         id="path4042"
         style="font-size:13.1837px;line-height:1.25;font-family:Balthazar;-inkscape-font-specification:'Balthazar, Normal';stroke-width:0.329593" />
      <path
         d="m 322.39345,85.543116 0.1582,-2.2676 v -2.76858 l -0.17139,-2.25441 -0.38232,-0.0923 0.0132,-0.2505 h 2.18849 l 0.0132,0.27686 -0.58008,0.0659 h -0.0132 l 4.15286,5.70854 v -3.45413 l -0.17138,-2.25441 -0.52735,-0.0659 0.0132,-0.27686 h 2.17531 l 0.0132,0.2505 -0.39551,0.0923 -0.15821,2.2676 v 2.41261 l 0.15821,2.61038 0.39551,0.0923 -0.0132,0.25049 h -2.13576 l -0.0132,-0.27685 0.59327,-0.0659 -4.2056,-5.76128 v 3.50686 l 0.1582,2.25442 0.52735,0.0659 -0.0132,0.27685 h -2.16213 l -0.0132,-0.25049 z"
         id="path4044"
         style="font-size:13.1837px;line-height:1.25;font-family:Balthazar;-inkscape-font-specification:'Balthazar, Normal';stroke-width:0.329593" />
      <path
         d="m 331.87251,78.252526 0.4878,1.41066 1.10743,2.06984 1.1338,-2.04348 0.4878,-1.43702 -0.55372,-0.0659 0.0132,-0.27686 h 2.1885 l 0.0132,0.2505 -0.39551,0.0923 -2.43899,4.27152 v 0.76465 l 0.15821,2.25442 0.59326,0.0923 -0.0132,0.25049 h -2.51808 l -0.0132,-0.25049 0.59326,-0.0923 0.15821,-2.2676 v -0.58008 l -2.47854,-4.44291 -0.39551,-0.0923 0.0132,-0.2505 h 2.35988 l 0.0132,0.27686 z"
         id="path4046"
         style="font-size:13.1837px;line-height:1.25;font-family:Balthazar;-inkscape-font-specification:'Balthazar, Normal';stroke-width:0.329593" />
      <path
         d="m 340.99562,78.582116 q -1.26564,0 -1.83253,0.81739 -0.55372,0.80421 -0.55372,2.46535 0,1.64797 0.71192,2.50491 0.7251,0.84375 1.99074,0.84375 1.26563,0 1.81935,-0.79102 0.5669,-0.8042 0.5669,-2.47853 0,-1.68752 -0.71192,-2.51809 -0.71192,-0.84376 -1.99074,-0.84376 z m 0.0527,7.50153 q -1.75343,0 -2.72902,-1.08106 -0.9756,-1.09425 -0.9756,-3.03226 0,-1.938 1.06788,-3.09816 1.06788,-1.16017 2.8345,-1.16017 1.76661,0 2.74221,1.08106 0.97559,1.08107 0.97559,3.01907 0,1.938 -1.08106,3.11135 -1.06788,1.16017 -2.8345,1.16017 z"
         id="path4048"
         style="font-size:13.1837px;line-height:1.25;font-family:Balthazar;-inkscape-font-specification:'Balthazar, Normal';stroke-width:0.329593" />
      <path
         d="m 346.80963,85.543116 0.1582,-2.2676 v -2.76858 l -0.17139,-2.25441 -0.38233,-0.0923 0.0132,-0.2505 h 2.18849 l 0.0132,0.27686 -0.58009,0.0659 h -0.0132 l 4.15286,5.70854 v -3.45413 l -0.17138,-2.25441 -0.52735,-0.0659 0.0132,-0.27686 h 2.17531 l 0.0132,0.2505 -0.39551,0.0923 -0.15821,2.2676 v 2.41261 l 0.15821,2.61038 0.39551,0.0923 -0.0132,0.25049 h -2.13576 l -0.0132,-0.27685 0.59327,-0.0659 -4.2056,-5.76128 v 3.50686 l 0.1582,2.25442 0.52735,0.0659 -0.0132,0.27685 h -2.16212 l -0.0132,-0.25049 z"
         id="path4050"
         style="font-size:13.1837px;line-height:1.25;font-family:Balthazar;-inkscape-font-specification:'Balthazar, Normal';stroke-width:0.329593" />
      <path
         d="m 355.07579,85.134416 q 0.29004,-0.71192 0.85694,-0.89649 0.92286,0.36914 0.92286,1.17335 0,0.79102 -1.31837,2.45217 l -0.30322,-0.21094 q 0.50098,-0.81739 0.61963,-1.80617 -0.32959,-0.10547 -0.50098,-0.25049 -0.15821,-0.14502 -0.27686,-0.46143 z"
         id="path4052"
         style="font-size:13.1837px;line-height:1.25;font-family:Balthazar;-inkscape-font-specification:'Balthazar, Normal';stroke-width:0.329593" />
      <path
         d="m 360.32288,77.857016 1.67433,0.0923 h 1.91163 l 1.67433,-0.0923 0.0659,-0.38233 h 0.25049 l 0.0527,1.87209 h -0.25049 l -0.11865,-0.51417 -1.97755,-0.0659 -0.11866,1.75343 v 2.76857 l 0.15821,2.25442 0.59326,0.0923 -0.0132,0.25049 h -2.51809 l -0.0132,-0.25049 0.59327,-0.0923 0.1582,-2.2676 v -2.76858 l -0.13184,-1.74024 -1.99073,0.0659 -0.11866,0.51417 h -0.25049 l 0.0527,-1.87209 h 0.25049 z"
         id="path4054"
         style="font-size:13.1837px;line-height:1.25;font-family:Balthazar;-inkscape-font-specification:'Balthazar, Normal';stroke-width:0.329593" />
      <path
         d="m 371.54218,80.005956 -1.2129,1.74025 1.41066,2.04348 1.35792,1.75343 0.43506,0.0923 -0.0132,0.25049 h -2.76858 l -0.0132,-0.27685 0.58008,-0.0527 -0.646,-1.41066 -1.08107,-1.58204 -1.02833,1.46339 -0.67236,1.51613 0.58008,0.0659 -0.0132,0.27685 h -2.49172 l -0.0132,-0.25049 0.43506,-0.0923 1.38429,-1.75343 1.31837,-1.95119 -1.23926,-1.83254 -1.34474,-1.75343 -0.38233,-0.0923 0.0132,-0.2505 h 2.7554 l 0.0132,0.27686 -0.646,0.0659 0.67237,1.42384 0.92286,1.35792 0.87012,-1.26563 0.67237,-1.51613 -0.52735,-0.0659 0.0132,-0.27686 h 2.45216 l 0.0132,0.2505 -0.39551,0.0923 z"
         id="path4056"
         style="font-size:13.1837px;line-height:1.25;font-family:Balthazar;-inkscape-font-specification:'Balthazar, Normal';stroke-width:0.329593" />
      <path
         id="path4058"
         style="color:#000000;fill:none;fill-opacity:1;stroke-width:4.7625;-inkscape-stroke:none"
         d="m 293.63061,41.045716 v 2.38073 21.07417 h 93.34572 v -23.4549 z" />
      <path
         id="path4060"
         style="fill:#000000;fill-opacity:1;stroke:none;stroke-width:0.264583px;stroke-linecap:butt;stroke-linejoin:miter;stroke-opacity:1"
         d="m 366.21062,36.477426 -0.9329,5.8191 21.6985,-1.25072 z" />
      <rect
         style="opacity:1;fill:#000000;stroke:none;stroke-width:1.02926;stroke-miterlimit:4;stroke-dasharray:none"
         id="rect4062"
         width="7.5912838"
         height="0.92604166"
         x="297.55048"
         y="81.349083" />
      <rect
         style="opacity:1;fill:#000000;stroke:none;stroke-width:1.02926;stroke-miterlimit:4;stroke-dasharray:none"
         id="rect4064"
         width="7.5912838"
         height="0.92604166"
         x="375.33127"
         y="81.349083" />
    </g>
  </g>
</svg>
