<?xml version="1.0" encoding="UTF-8" standalone="no"?>
<!-- Created with Inkscape (http://www.inkscape.org/) -->

<svg
   width="82.020836mm"
   height="82.020836mm"
   viewBox="0 0 82.020836 82.020836"
   version="1.1"
   id="svg4346"
   xmlns="http://www.w3.org/2000/svg"
   xmlns:svg="http://www.w3.org/2000/svg">
  <defs
     id="defs4343" />
  <g
     id="layer1"
     transform="translate(-60.997463,-106.97447)">
    <g
       id="g39813"
       style="display:inline"
       transform="matrix(0.83559134,0,0,0.83559134,60.802082,106.07402)">
      <circle
         style="fill:#000000;fill-opacity:1;stroke:none;stroke-width:5.21222;stroke-miterlimit:4;stroke-dasharray:none;stroke-opacity:1"
         id="path34831"
         cx="44.740795"
         cy="-54.275269"
         r="47.496304"
         transform="rotate(95.986199)" />
      <path
         id="path1008"
         style="fill:#e2ded5;fill-opacity:1;stroke:none;stroke-width:0.131189px;stroke-linecap:butt;stroke-linejoin:miter;stroke-opacity:1"
         d="m 35.768859,23.06033 c -3.285512,-3.266824 -9.714772,-4.082483 -12.307235,0.28083 l 6.762203,2.733471 0.867494,4.266078 -5.26819,13.002063 c 0,0 8.980816,-1.198442 13.291047,2.388684 4.310225,3.58713 30.750132,31.480556 33.135402,33.250626 4.57713,3.396626 9.75978,-2.683493 6.2105,-6.390239 C 73.89947,67.828898 55.62314,52.313267 44.503939,41.160633 40.943175,36.524554 38.420807,29.873127 37.636106,26.321217 37.362351,25.082074 36.688802,23.97504 35.768859,23.06033 Z M 77.14326,73.261486 a 2.9215863,2.9215863 0 0 1 -1.9e-4,4.131824 2.9215863,2.9215863 0 0 1 -4.13163,0 2.9215863,2.9215863 0 0 1 -1.8e-4,-4.131824 2.9215863,2.9215863 0 0 1 4.132,0 z M 38.488924,36.359167 c 0.07228,0.06785 0.100699,0.174648 0.06396,0.273763 l -0.26235,0.708053 c -0.04897,0.132138 -0.194869,0.199194 -0.327029,0.150199 L 33.04137,35.666875 c -0.132134,-0.04897 -0.198937,-0.194764 -0.150017,-0.32685 l 0.262531,-0.708235 c 0.04897,-0.132137 0.194687,-0.199009 0.326849,-0.150017 l 4.921953,1.824126 c 0.03304,0.01224 0.06215,0.03065 0.08624,0.05327 z m -0.597171,1.614318 c 0.07229,0.06785 0.100699,0.174644 0.06396,0.273764 l -0.26253,0.708234 c -0.04897,0.132144 -0.194688,0.199011 -0.326851,0.150019 l -4.922133,-1.824308 c -0.132137,-0.04897 -0.198936,-0.194762 -0.150018,-0.32685 l 0.26235,-0.708053 c 0.04897,-0.132143 0.194878,-0.199182 0.327032,-0.150199 l 4.922132,1.824308 c 0.03304,0.01224 0.06197,0.03047 0.08606,0.05308 z m -0.580684,1.63117 c 0.07227,0.06787 0.100647,0.1747 0.06396,0.273763 l -0.26235,0.708054 c -0.04897,0.132135 -0.19469,0.199013 -0.326849,0.150017 l -4.922134,-1.823945 c -0.132138,-0.04897 -0.199119,-0.194945 -0.150198,-0.327031 l 0.262531,-0.708235 c 0.04897,-0.132137 0.194724,-0.198972 0.326849,-0.150017 l 4.922135,1.824307 c 0.03304,0.01224 0.06197,0.03046 0.08606,0.05309 z" />
      <path
         style="fill:#e2ded5;fill-opacity:1;stroke:none;stroke-width:0.120936px;stroke-linecap:butt;stroke-linejoin:miter;stroke-opacity:1"
         d="m 18.991599,33.564089 6.272973,2.554014 2.905182,-2.152293 -3.493886,8.915494 c -4.558461,-3.362961 -5.741205,-6.394733 -5.684269,-9.317215 z"
         id="path8938" />
    </g>
  </g>
</svg>
